<?xml version="1.0" standalone="no"?>
<!DOCTYPE svg PUBLIC "-//W3C//DTD SVG 1.1//EN" "http://www.w3.org/Graphics/SVG/1.1/DTD/svg11.dtd" >
<svg xmlns="http://www.w3.org/2000/svg">
<metadata>Generated by IcoMoon</metadata>
<defs>
<font id="arenafont" horiz-adv-x="1024">
<font-face units-per-em="1024" ascent="870.4" descent="-153.6" />
<missing-glyph horiz-adv-x="1024" />
<glyph unicode="&#x20;" horiz-adv-x="0" d="" />
<glyph unicode="&#xe800;" glyph-name="toy-car-light" d="M901.12 355.072h-99.328l-95.232 147.456c-3.072 3.072-7.168 6.144-13.312 6.144h-106.496c-10.24 0-16.384-6.144-16.384-16.384v-75.776h-92.16v130.048c0 68.608-51.2 122.88-119.808 125.952-7.168 27.648-30.72 51.2-61.44 51.2s-61.44-30.72-61.44-64.512c0-33.792 27.648-64.512 64.512-64.512 27.648 0 51.2 20.48 61.44 44.032 48.128-3.072 86.016-44.032 86.016-92.16v-133.12h-324.608c-10.24 0-17.408-7.168-17.408-17.408v-310.272c0-10.24 7.168-17.408 17.408-17.408h81.92c10.24-51.2 58.368-88.064 109.568-88.064 54.272 0 98.304 36.864 108.544 88.064h150.528c10.24-51.2 58.368-88.064 109.568-88.064 54.272 0 98.304 36.864 108.544 88.064h106.496c10.24 0 16.384 7.168 16.384 17.408v252.928c4.096 10.24-3.072 16.384-13.312 16.384zM314.368 68.352c-14.336 0-24.576 10.24-24.576 24.576 0 13.312 10.24 23.552 24.576 23.552 13.312 0 23.552-10.24 23.552-23.552 0-14.336-10.24-24.576-23.552-24.576zM686.080 68.352c-13.312 0-23.552 10.24-23.552 24.576 0 13.312 10.24 23.552 23.552 23.552s23.552-10.24 23.552-23.552c0-14.336-10.24-24.576-23.552-24.576zM883.712 277.248h-44.032c-10.24 0-17.408-7.168-17.408-17.408s7.168-17.408 17.408-17.408h44.032v-139.264h-84.992c0 3.072 0 3.072 0 6.144 0 4.096 0 7.168-3.072 10.24 0 4.096-4.096 7.168-4.096 10.24 0 4.096-3.072 7.168-3.072 10.24 0 4.096-3.072 7.168-7.168 10.24 0 4.096-3.072 7.168-3.072 7.168-3.072 3.072-3.072 7.168-7.168 10.24-3.072 3.072-3.072 3.072-6.144 7.168-4.096 3.072-7.168 6.144-10.24 6.144-4.096 4.096-4.096 4.096-7.168 7.168s-7.168 3.072-10.24 7.168c-3.072 0-3.072 3.072-7.168 3.072-3.072 3.072-10.24 3.072-13.312 3.072s-3.072 0-7.168 4.096c-6.144 0-13.312 3.072-23.552 3.072s-13.312 0-23.552-3.072c-4.096 0-4.096 0-7.168-4.096-3.072 0-10.24-3.072-13.312-3.072-4.096 0-4.096-3.072-7.168-3.072-3.072-4.096-7.168-4.096-10.24-7.168-3.072 0-3.072-3.072-7.168-7.168-3.072-3.072-6.144-3.072-10.24-6.144-3.072-4.096-3.072-4.096-6.144-7.168-4.096-3.072-7.168-7.168-7.168-10.24-3.072-3.072-3.072-7.168-3.072-7.168-4.096-3.072-4.096-6.144-7.168-10.24 0-3.072-3.072-6.144-3.072-10.24 0-3.072-4.096-6.144-4.096-10.24 0-3.072 0-6.144-3.072-10.24 0-3.072 0-3.072 0-6.144h-146.432c0 3.072 0 3.072 0 6.144 0 4.096 0 7.168-4.096 10.24 0 4.096-3.072 7.168-3.072 10.24 0 4.096-3.072 7.168-3.072 10.24 0 4.096-4.096 7.168-7.168 10.24 0 4.096-3.072 7.168-3.072 7.168-4.096 3.072-4.096 7.168-7.168 10.24s-3.072 3.072-7.168 7.168c-3.072 3.072-6.144 6.144-10.24 6.144-3.072 4.096-3.072 4.096-6.144 7.168-4.096 3.072-7.168 3.072-10.24 7.168-4.096 0-4.096 3.072-7.168 3.072-3.072 3.072-10.24 3.072-13.312 3.072-4.096 0-4.096 0-7.168 4.096-7.168 0-13.312 3.072-23.552 3.072s-14.336 0-24.576-3.072c-3.072 0-3.072 0-6.144-4.096-4.096 0-10.24-3.072-14.336-3.072-3.072 0-3.072-3.072-6.144-3.072-4.096-4.096-7.168-4.096-10.24-7.168-4.096 0-4.096-3.072-7.168-7.168-3.072 0-7.168-3.072-10.24-6.144-3.072-4.096-3.072-4.096-7.168-7.168-3.072-3.072-6.144-7.168-6.144-10.24-4.096-3.072-4.096-7.168-4.096-7.168-3.072-3.072-3.072-6.144-6.144-10.24 0-3.072-4.096-6.144-4.096-10.24-3.072-3.072-3.072-6.144-3.072-10.24 0-3.072 0-6.144-3.072-10.24 0-3.072 0-3.072 0-6.144h-61.44v187.392h450.56c10.24 0 16.384 7.168 16.384 17.408v169.984h68.608v-136.192c0-10.24 7.168-17.408 17.408-17.408h194.56v-47.104h-4.096z" />
<glyph unicode="&#xe801;" glyph-name="build-wall-light" d="M843.776 182.016c-7.168 0-14.336 1.024-21.504 4.096l-336.896 135.168c-17.408 7.168-29.696 22.528-33.792 40.96s2.048 37.888 15.36 51.2l75.776 75.776c4.096 3.072 8.192 5.12 12.288 5.12 5.12 0 9.216-2.048 12.288-5.12l48.128-48.128c5.12-5.12 13.312-5.12 18.432 0l6.144 6.144c5.12 5.12 5.12 14.336 0 19.456l-48.128 48.128c-3.072 3.072-4.096 7.168-4.096 11.264 0 5.12 1.024 9.216 4.096 12.288l76.8 76.8c13.312 12.288 32.768 18.432 51.2 14.336 18.432-3.072 33.792-16.384 40.96-33.792l135.168-336.896c8.192-20.48 3.072-44.032-13.312-60.416-10.24-10.24-24.576-16.384-38.912-16.384zM555.008 453.376l-63.488-64.512c-6.144-5.12-8.192-12.288-6.144-19.456 1.024-8.192 6.144-13.312 13.312-16.384l336.896-135.168c2.048-1.024 5.12-2.048 8.192-2.048 6.144 0 11.264 3.072 15.36 7.168 6.144 6.144 8.192 15.36 5.12 23.552l-135.168 336.896c-3.072 6.144-9.216 11.264-16.384 13.312-7.168 1.024-14.336-1.024-19.456-6.144l-64.512-64.512 35.84-35.84c18.432-18.432 18.432-48.128 0-66.56l-6.144-6.144c-18.432-18.432-49.152-18.432-67.584 0l-35.84 35.84zM624.64 403.2c-12.288 0-24.576 5.12-33.792 14.336l-77.824 77.824c-6.144 6.144-6.144 17.408 0 24.576 7.168 6.144 17.408 6.144 24.576 0l77.824-78.848c2.048-2.048 5.12-4.096 9.216-4.096 0 0 0 0 0 0 3.072 0 7.168 2.048 9.216 4.096l6.144 6.144c5.12 5.12 5.12 14.336 0 19.456l-77.824 77.824c-6.144 6.144-6.144 17.408 0 24.576 7.168 6.144 17.408 6.144 24.576 0l77.824-78.848c18.432-18.432 18.432-48.128 0-66.56l-6.144-6.144c-9.216-9.216-21.504-14.336-33.792-14.336 0 0 0 0 0 0zM512 491.264c-18.432 0-35.84 7.168-48.128 19.456l-144.384 144.384c-17.408 17.408-16.384 34.816-13.312 47.104 4.096 11.264 11.264 22.528 25.6 36.864l10.24 11.264c13.312 12.288 30.72 26.624 51.2 26.624 12.288 0 23.552-5.12 33.792-14.336l143.36-144.384c13.312-13.312 20.48-29.696 20.48-48.128s-7.168-35.84-20.48-48.128l-10.24-11.264c-13.312-12.288-30.72-19.456-48.128-19.456zM393.216 743.168c-6.144 0-15.36-6.144-26.624-17.408l-10.24-10.24c-10.24-10.24-15.36-17.408-17.408-23.552-1.024-3.072-1.024-7.168 5.12-13.312l143.36-143.36c13.312-13.312 35.84-13.312 48.128 0l11.264 10.24c6.144 7.168 9.216 15.36 9.216 24.576s-3.072 17.408-9.216 23.552l-144.384 144.384c-5.12 5.12-8.192 5.12-9.216 5.12zM688.128-39.168h-193.536c-10.24 0-17.408 7.168-17.408 17.408v96.256c0 9.216 7.168 17.408 17.408 17.408h193.536c9.216 0 16.384-8.192 16.384-17.408v-96.256c0-10.24-7.168-17.408-16.384-17.408zM510.976-5.376h159.744v62.464h-159.744v-62.464zM881.664-39.168h-193.536c-10.24 0-17.408 7.168-17.408 17.408v96.256c0 9.216 7.168 17.408 17.408 17.408h193.536c9.216 0 16.384-8.192 16.384-17.408v-96.256c0-10.24-7.168-17.408-16.384-17.408zM704.512-5.376h159.744v62.464h-159.744v-62.464zM494.592-39.168h-193.536c-9.216 0-17.408 7.168-17.408 17.408v96.256c0 9.216 8.192 17.408 17.408 17.408h193.536c9.216 0 16.384-8.192 16.384-17.408v-96.256c0-10.24-7.168-17.408-16.384-17.408zM317.44-5.376h159.744v62.464h-159.744v-62.464zM301.056-39.168h-193.536c-9.216 0-17.408 7.168-17.408 17.408v96.256c0 9.216 8.192 17.408 17.408 17.408h193.536c9.216 0 16.384-8.192 16.384-17.408v-96.256c0-10.24-7.168-17.408-16.384-17.408zM124.928-5.376h158.72v62.464h-158.72v-62.464zM590.848 57.088h-193.536c-9.216 0-16.384 8.192-16.384 17.408v97.28c0 9.216 7.168 16.384 16.384 16.384h193.536c9.216 0 17.408-7.168 17.408-16.384v-97.28c0-9.216-8.192-17.408-17.408-17.408zM414.72 91.904h159.744v62.464h-159.744v-62.464zM397.312 57.088h-193.536c-9.216 0-16.384 8.192-16.384 17.408v97.28c0 9.216 7.168 16.384 16.384 16.384h193.536c9.216 0 17.408-7.168 17.408-16.384v-97.28c0-9.216-8.192-17.408-17.408-17.408zM221.184 91.904h159.744v62.464h-159.744v-62.464zM203.776 57.088h-96.256c-9.216 0-17.408 8.192-17.408 17.408v97.28c0 9.216 8.192 16.384 17.408 16.384h96.256c10.24 0 17.408-7.168 17.408-16.384v-97.28c0-9.216-7.168-17.408-17.408-17.408zM124.928 91.904h62.464v62.464h-62.464v-62.464zM688.128 154.368h-193.536c-10.24 0-17.408 7.168-17.408 17.408v96.256c0 9.216 7.168 17.408 17.408 17.408 9.216 0 16.384-8.192 16.384-17.408v-79.872h177.152c9.216 0 16.384-7.168 16.384-16.384 0-10.24-7.168-17.408-16.384-17.408zM494.592 154.368h-193.536c-9.216 0-17.408 7.168-17.408 17.408v96.256c0 9.216 8.192 17.408 17.408 17.408h193.536c9.216 0 16.384-8.192 16.384-17.408v-96.256c0-10.24-7.168-17.408-16.384-17.408zM317.44 188.16h159.744v62.464h-159.744v-62.464zM301.056 154.368h-193.536c-9.216 0-17.408 7.168-17.408 17.408v96.256c0 9.216 8.192 17.408 17.408 17.408h193.536c9.216 0 16.384-8.192 16.384-17.408v-96.256c0-10.24-7.168-17.408-16.384-17.408zM124.928 188.16h158.72v62.464h-158.72v-62.464zM397.312 250.624h-193.536c-9.216 0-16.384 8.192-16.384 17.408v96.256c0 10.24 7.168 17.408 16.384 17.408h193.536c9.216 0 17.408-7.168 17.408-17.408v-96.256c0-9.216-8.192-17.408-17.408-17.408zM221.184 285.44h159.744v62.464h-159.744v-62.464zM467.968 347.904h-166.912c-9.216 0-17.408 7.168-17.408 16.384v97.28c0 9.216 8.192 17.408 17.408 17.408h193.536c9.216 0 16.384-8.192 16.384-17.408s-7.168-17.408-16.384-17.408h-177.152v-62.464h150.528c10.24 0 17.408-7.168 17.408-17.408 0-9.216-7.168-16.384-17.408-16.384zM301.056 347.904h-193.536c-9.216 0-17.408 7.168-17.408 16.384v97.28c0 9.216 8.192 17.408 17.408 17.408h193.536c9.216 0 16.384-8.192 16.384-17.408v-97.28c0-9.216-7.168-16.384-16.384-16.384zM124.928 381.696h158.72v62.464h-158.72v-62.464zM560.128 444.16h-162.816c-9.216 0-16.384 8.192-16.384 17.408v96.256c0 10.24 7.168 17.408 16.384 17.408s17.408-7.168 17.408-17.408v-78.848h145.408c9.216 0 16.384-8.192 16.384-17.408s-7.168-17.408-16.384-17.408zM397.312 444.16h-193.536c-9.216 0-16.384 8.192-16.384 17.408v96.256c0 10.24 7.168 17.408 16.384 17.408h193.536c9.216 0 17.408-7.168 17.408-17.408v-96.256c0-9.216-8.192-17.408-17.408-17.408zM221.184 478.976h159.744v62.464h-159.744v-62.464zM203.776 250.624h-96.256c-9.216 0-17.408 8.192-17.408 17.408v96.256c0 10.24 8.192 17.408 17.408 17.408h96.256c10.24 0 17.408-7.168 17.408-17.408v-96.256c0-9.216-7.168-17.408-17.408-17.408zM124.928 285.44h62.464v62.464h-62.464v-62.464zM203.776 444.16h-96.256c-9.216 0-17.408 8.192-17.408 17.408v96.256c0 10.24 8.192 17.408 17.408 17.408h96.256c10.24 0 17.408-7.168 17.408-17.408v-96.256c0-9.216-7.168-17.408-17.408-17.408zM124.928 478.976h62.464v62.464h-62.464v-62.464z" />
<glyph unicode="&#xe802;" glyph-name="television-light" d="M904.192-54.528h-122.88c-6.144 0-13.312 4.096-16.384 10.24l-30.72 75.776h-444.416l-30.72-75.776c-3.072-6.144-10.24-10.24-16.384-10.24h-122.88c-10.24 0-17.408 7.168-17.408 17.408v252.928c0 10.24 7.168 16.384 17.408 16.384h784.384c10.24 0 17.408-6.144 17.408-16.384v-252.928c0-10.24-7.168-17.408-17.408-17.408zM791.552-19.712h96.256v218.112h-751.616v-218.112h96.256l30.72 74.752c3.072 7.168 10.24 10.24 16.384 10.24h471.040c7.168 0 14.336-3.072 17.408-10.24l23.552-74.752zM532.48 116.48h-37.888c-10.24 0-16.384 7.168-16.384 17.408s6.144 16.384 16.384 16.384h37.888c10.24 0 17.408-6.144 17.408-16.384s-10.24-17.408-17.408-17.408zM857.088 334.592h-690.176c-10.24 0-16.384 7.168-16.384 17.408v389.12c0 10.24 6.144 17.408 16.384 17.408h690.176c10.24 0 16.384-7.168 16.384-17.408v-389.12c0-10.24-6.144-17.408-16.384-17.408zM184.32 369.408h655.36v354.304h-655.36v-354.304zM529.408 331.52h-34.816v-74.752h34.816v74.752zM648.192 290.56h-276.48v-33.792h276.48v33.792z" />
<glyph unicode="&#xe803;" glyph-name="brush-light" d="M596.992 583.424h-290.816c-31.744 0-57.344 25.6-57.344 56.32v78.848c0 30.72 25.6 56.32 57.344 56.32h460.8c31.744 0 56.32-25.6 56.32-56.32v-78.848c0-9.216-7.168-16.384-16.384-16.384s-17.408 7.168-17.408 16.384v78.848c0 12.288-10.24 22.528-22.528 22.528h-460.8c-12.288 0-22.528-10.24-22.528-22.528v-78.848c0-12.288 10.24-22.528 22.528-22.528h290.816c10.24 0 17.408-7.168 17.408-16.384 0-10.24-7.168-17.408-17.408-17.408zM823.296 631.552h-16.384c-9.216 0-17.408 8.192-17.408 17.408v60.416c0 9.216 8.192 16.384 17.408 16.384h16.384c26.624 0 47.104-20.48 47.104-47.104 0-25.6-20.48-47.104-47.104-47.104zM823.296 666.368v0c7.168 0 13.312 5.12 13.312 12.288s-6.144 13.312-13.312 13.312v0-25.6zM772.096 365.312c-28.672 0-52.224 22.528-52.224 51.2v137.216c-2.048 0-3.072 0-5.12 1.024-8.192-9.216-19.456-15.36-30.72-16.384 0-28.672-23.552-52.224-52.224-52.224s-51.2 23.552-51.2 52.224v119.808c0 10.24 7.168 17.408 16.384 17.408 10.24 0 17.408-7.168 17.408-17.408v-119.808c0-10.24 8.192-18.432 17.408-18.432 10.24 0 18.432 8.192 18.432 18.432v17.408c0 5.12 2.048 10.24 6.144 14.336 4.096 3.072 10.24 4.096 15.36 2.048 10.24-3.072 17.408 2.048 20.48 9.216 2.048 4.096 5.12 7.168 10.24 9.216 4.096 1.024 8.192 1.024 12.288-1.024 5.12-2.048 10.24-2.048 15.36 0s11.264 2.048 16.384-1.024c5.12-3.072 8.192-9.216 8.192-14.336v-157.696c0-9.216 7.168-17.408 17.408-17.408 9.216 0 17.408 8.192 17.408 17.408v229.376c0 9.216 7.168 17.408 17.408 17.408 9.216 0 16.384-8.192 16.384-17.408v-229.376c0-28.672-22.528-51.2-51.2-51.2zM547.84-37.12h-22.528c-51.2 0-92.16 41.984-92.16 93.184v189.44c0 47.104 33.792 73.728 92.16 73.728h22.528c58.368 0 92.16-26.624 92.16-73.728v-189.44c0-51.2-41.984-93.184-92.16-93.184zM525.312 285.44c-58.368 0-58.368-29.696-58.368-39.936v-189.44c0-32.768 26.624-58.368 58.368-58.368h22.528c31.744 0 57.344 25.6 57.344 58.368v189.44c0 10.24 0 39.936-57.344 39.936h-22.528zM566.272 283.392c-1.024 0-1.024 0-2.048 0-5.12 1.024-11.264 2.048-16.384 2.048h-22.528c-6.144 0-11.264-1.024-16.384-2.048-5.12 0-10.24 1.024-13.312 4.096-4.096 4.096-6.144 8.192-6.144 13.312v75.776c0 15.36-12.288 27.648-27.648 27.648h-220.16c-67.584 0-122.88 55.296-122.88 121.856v77.824c0 67.584 55.296 121.856 122.88 121.856h24.576c9.216 0 17.408-7.168 17.408-16.384v-60.416c0-9.216-8.192-17.408-17.408-17.408h-24.576c-16.384 0-28.672-12.288-28.672-27.648v-77.824c0-15.36 12.288-27.648 28.672-27.648h220.16c66.56 0 121.856-54.272 121.856-121.856v-75.776c0-5.12-2.048-9.216-6.144-13.312-3.072-2.048-7.168-4.096-11.264-4.096zM525.312 319.232h22.528c0 0 1.024 0 2.048 0v57.344c0 48.128-39.936 88.064-88.064 88.064h-220.16c-34.816 0-62.464 27.648-62.464 61.44v77.824c0 34.816 27.648 62.464 62.464 62.464h7.168v25.6h-7.168c-49.152 0-88.064-38.912-88.064-88.064v-77.824c0-48.128 38.912-87.040 88.064-87.040h220.16c33.792 0 61.44-28.672 61.44-62.464v-57.344c1.024 0 1.024 0 2.048 0zM540.672 202.496h-8.192c-10.24 0-17.408 8.192-17.408 17.408s7.168 17.408 17.408 17.408h8.192c9.216 0 17.408-8.192 17.408-17.408s-8.192-17.408-17.408-17.408zM540.672 125.696h-8.192c-10.24 0-17.408 7.168-17.408 16.384 0 10.24 7.168 17.408 17.408 17.408h8.192c9.216 0 17.408-7.168 17.408-17.408 0-9.216-8.192-16.384-17.408-16.384zM540.672 47.872h-8.192c-10.24 0-17.408 8.192-17.408 17.408s7.168 17.408 17.408 17.408h8.192c9.216 0 17.408-8.192 17.408-17.408s-8.192-17.408-17.408-17.408z" />
<glyph unicode="&#xe804;" glyph-name="shower-light" d="M768 621.312h-215.040c-20.48 0-33.792 17.408-33.792 34.816v10.24c0 51.2 40.96 92.16 92.16 92.16h105.472c51.2 0 92.16-40.96 92.16-92.16v-10.24c-3.072-17.408-20.48-34.816-40.96-34.816zM607.232 723.712c-30.72 0-57.344-23.552-57.344-57.344v-10.24h218.112v10.24c0 30.72-23.552 57.344-58.368 57.344h-102.4zM583.68 526.080c-17.408 0-27.648 13.312-27.648 27.648 0 6.144 4.096 13.312 7.168 16.384l20.48 30.72 23.552-30.72c4.096-3.072 7.168-10.24 7.168-16.384-3.072-17.408-17.408-27.648-30.72-27.648zM662.528 526.080c-17.408 0-27.648 13.312-27.648 27.648 0 6.144 3.072 13.312 7.168 16.384l20.48 30.72 20.48-30.72c3.072-3.072 6.144-10.24 6.144-16.384 0-17.408-13.312-27.648-26.624-27.648zM737.28 526.080c-17.408 0-27.648 13.312-27.648 27.648 0 6.144 4.096 13.312 7.168 16.384l20.48 30.72 23.552-30.72c4.096-3.072 7.168-10.24 7.168-16.384 0-17.408-13.312-27.648-30.72-27.648zM621.568 441.088c-17.408 0-27.648 13.312-27.648 26.624 0 7.168 3.072 14.336 7.168 17.408l20.48 30.72 23.552-30.72c3.072-3.072 7.168-10.24 7.168-17.408-4.096-13.312-14.336-26.624-30.72-26.624zM699.392 441.088c-16.384 0-26.624 13.312-26.624 26.624 0 7.168 3.072 14.336 6.144 17.408l20.48 30.72 24.576-30.72c3.072-3.072 6.144-10.24 6.144-17.408-3.072-13.312-13.312-26.624-30.72-26.624zM730.112 11.008h-436.224c-106.496 0-191.488 84.992-191.488 190.464v147.456c0 10.24 7.168 16.384 17.408 16.384h784.384c10.24 0 17.408-6.144 17.408-16.384v-147.456c0-105.472-84.992-190.464-191.488-190.464zM136.192 331.52v-130.048c0-84.992 71.68-156.672 157.696-156.672h436.224c86.016 0 157.696 71.68 157.696 156.672v130.048h-751.616zM207.872 7.936l-29.696 17.408-31.744-53.248 29.696-17.408 31.744 53.248zM876.544-26.88l-31.744 53.248-28.672-18.432 30.72-52.224 29.696 17.408zM918.528 382.72h-34.816v256c0 48.128-36.864 84.992-84.992 84.992v34.816c64.512 0 119.808-55.296 119.808-119.808v-256z" />
<glyph unicode="&#xe805;" glyph-name="desk-light" d="M904.192 96h-430.080c-10.24 0-16.384 7.168-16.384 17.408v381.952h-245.76v-381.952c0-10.24-7.168-17.408-17.408-17.408h-74.752c-10.24 0-17.408 10.24-17.408 17.408v477.184c0 10.24 7.168 17.408 17.408 17.408h781.312c3.072 0 10.24-3.072 13.312-3.072 4.096 0 7.168-10.24 7.168-14.336v-477.184c0-7.168-7.168-17.408-17.408-17.408zM491.52 129.792h396.288v444.416h-751.616v-440.32h40.96v378.88c0 10.24 7.168 16.384 17.408 16.384h276.48c10.24 0 17.408-6.144 17.408-16.384v-382.976h3.072zM829.44 174.848h-276.48c-10.24 0-17.408 6.144-17.408 16.384v324.608c0 10.24 7.168 17.408 17.408 17.408h276.48c10.24 0 17.408-7.168 17.408-17.408v-324.608c0-10.24-10.24-16.384-17.408-16.384zM566.272 208.64h242.688v289.792h-242.688v-289.792zM829.44 420.608h-276.48c-10.24 0-17.408 6.144-17.408 16.384s7.168 17.408 17.408 17.408h276.48c10.24 0 17.408-7.168 17.408-17.408s-10.24-16.384-17.408-16.384zM829.44 334.592h-276.48c-10.24 0-17.408 7.168-17.408 17.408s7.168 17.408 17.408 17.408h276.48c10.24 0 17.408-7.168 17.408-17.408s-10.24-17.408-17.408-17.408zM699.392 252.672h-20.48c-10.24 0-16.384 7.168-16.384 17.408s6.144 17.408 16.384 17.408h20.48c10.24 0 17.408-7.168 17.408-17.408s-7.168-17.408-17.408-17.408z" />
<glyph unicode="&#xe806;" glyph-name="dining-room-light" d="M122.88 136.96c-3.072 0-3.072 0-7.168 0-10.24 3.072-13.312 13.312-10.24 20.48l68.608 181.248c3.072 6.144 10.24 10.24 17.408 10.24h159.744c10.24 0 17.408-7.168 17.408-17.408v-181.248c0-10.24-7.168-16.384-17.408-16.384s-16.384 6.144-16.384 16.384v163.84h-130.048l-64.512-166.912c-4.096-7.168-10.24-10.24-17.408-10.24zM191.488 314.112c-7.168 0-14.336 4.096-17.408 10.24l-68.608 219.136c0 13.312 4.096 20.48 14.336 23.552 6.144 3.072 16.384 0 20.48-10.24l67.584-218.112c4.096-10.24 0-20.48-10.24-20.48-3.072-4.096-3.072-4.096-6.144-4.096zM355.328 215.808h-201.728c-10.24 0-17.408 6.144-17.408 16.384s7.168 17.408 17.408 17.408h201.728c10.24 0 16.384-7.168 16.384-17.408s-6.144-16.384-16.384-16.384zM901.12 136.96c-7.168 0-13.312 3.072-17.408 10.24l-64.512 166.912h-133.12v-163.84c0-10.24-7.168-16.384-17.408-16.384s-16.384 6.144-16.384 16.384v181.248c0 10.24 6.144 17.408 16.384 17.408h160.768c7.168 0 13.312-4.096 17.408-10.24l67.584-181.248c4.096-10.24 0-17.408-10.24-20.48 0 0-3.072 0-3.072 0zM832.512 314.112c0 0-3.072 0-6.144 0-10.24 4.096-14.336 14.336-10.24 20.48l67.584 219.136c4.096 10.24 14.336 13.312 20.48 10.24 10.24-4.096 14.336-14.336 10.24-20.48l-67.584-219.136c0-3.072-7.168-10.24-14.336-10.24zM870.4 215.808h-201.728c-10.24 0-16.384 6.144-16.384 16.384s6.144 17.408 16.384 17.408h201.728c10.24 0 17.408-7.168 17.408-17.408s-7.168-16.384-17.408-16.384zM545.792 136.96h-67.584c-10.24 0-17.408 7.168-17.408 17.408s7.168 16.384 17.408 16.384h67.584c10.24 0 17.408-6.144 17.408-16.384s-7.168-17.408-17.408-17.408zM512 136.96c-10.24 0-17.408 7.168-17.408 17.408v238.592c0 10.24 7.168 17.408 17.408 17.408s17.408-7.168 17.408-17.408v-238.592c0-10.24-7.168-17.408-17.408-17.408zM693.248 375.552h-362.496c-10.24 0-16.384 7.168-16.384 17.408v68.608c0 10.24 6.144 16.384 16.384 16.384h362.496c10.24 0 16.384-6.144 16.384-16.384v-68.608c0-10.24-6.144-17.408-16.384-17.408zM348.16 410.368h327.68v33.792h-327.68v-33.792z" />
<glyph unicode="&#xe807;" glyph-name="boxes-light" d="M512 334.592h-389.12c-10.24 0-17.408 7.168-17.408 17.408v389.12c0 10.24 7.168 17.408 17.408 17.408h389.12c10.24 0 17.408-7.168 17.408-17.408v-389.12c0-10.24-7.168-17.408-17.408-17.408zM140.288 369.408h354.304v354.304h-354.304v-354.304zM440.32 406.272h-245.76c-10.24 0-17.408 7.168-17.408 17.408v245.76c0 10.24 7.168 17.408 17.408 17.408h242.688c10.24 0 16.384-7.168 16.384-17.408v-242.688c4.096-10.24-6.144-20.48-13.312-20.48zM211.968 441.088h207.872v210.944h-207.872v-210.944zM512-54.528h-389.12c-10.24 0-17.408 7.168-17.408 17.408v389.12c0 10.24 7.168 17.408 17.408 17.408h389.12c10.24 0 17.408-7.168 17.408-17.408v-389.12c0-10.24-7.168-17.408-17.408-17.408zM140.288-19.712h354.304v354.304h-354.304v-354.304zM440.32 17.152h-245.76c-10.24 0-17.408 7.168-17.408 17.408v242.688c0 10.24 7.168 16.384 17.408 16.384h242.688c10.24 0 16.384-6.144 16.384-16.384v-242.688c4.096-7.168-6.144-17.408-13.312-17.408zM211.968 51.968h207.872v207.872h-207.872v-207.872zM901.12-54.528h-389.12c-10.24 0-17.408 7.168-17.408 17.408v389.12c0 10.24 7.168 17.408 17.408 17.408h389.12c10.24 0 17.408-7.168 17.408-17.408v-389.12c0-10.24-7.168-17.408-17.408-17.408zM529.408-19.712h354.304v354.304h-354.304v-354.304zM829.44 17.152h-242.688c-10.24 0-16.384 7.168-16.384 17.408v242.688c0 10.24 6.144 16.384 16.384 16.384h242.688c10.24 0 17.408-6.144 17.408-16.384v-242.688c0-7.168-10.24-17.408-17.408-17.408zM601.088 51.968h207.872v207.872h-207.872v-207.872z" />
<glyph unicode="&#xe808;" glyph-name="cactus" d="M642.048-57.6h-256c-7.168 0-14.336 3.072-17.408 10.24l-99.328 300.032c-3.072 7.168 0 10.24 4.096 17.408 3.072 3.072 6.144 7.168 13.312 7.168h457.728c6.144 0 10.24-4.096 13.312-7.168s3.072-10.24 3.072-17.408l-98.304-300.032c-7.168-7.168-14.336-10.24-20.48-10.24zM396.288-23.808h231.424l89.088 266.24h-409.6l89.088-266.24zM652.288 242.432h-280.576c-10.24 0-16.384 7.168-16.384 17.408 0 3.072 0 7.168 0 7.168v337.92c0 88.064 71.68 156.672 156.672 156.672s156.672-71.68 156.672-156.672v-337.92c0 0 0-4.096 0-7.168 0-10.24-6.144-17.408-16.384-17.408zM389.12 277.248h245.76v327.68c0 67.584-54.272 122.88-122.88 122.88s-122.88-55.296-122.88-122.88v-327.68zM566.272 242.432h-112.64c-10.24 0-16.384 7.168-16.384 17.408v345.088c0 77.824 26.624 156.672 74.752 156.672s74.752-78.848 74.752-156.672v-337.92c0-4.096 0-4.096 0-7.168-3.072-7.168-10.24-17.408-20.48-17.408zM471.040 277.248h78.848v327.68c3.072 81.92-24.576 122.88-37.888 122.88s-40.96-45.056-40.96-122.88v-327.68zM338.944 602.88l-29.696 28.672-23.552-24.576 28.672-28.672 24.576 24.576zM337.92 527.104l-28.672 29.696-24.576-24.576 29.696-28.672 23.552 23.552zM336.896 452.352l-28.672 29.696-23.552-24.576 28.672-28.672 23.552 23.552zM750.592 554.752l-29.696 28.672-23.552-24.576 28.672-28.672 24.576 24.576zM749.568 478.976l-28.672 29.696-24.576-24.576 28.672-28.672 24.576 23.552zM751.616 407.296l-29.696 28.672-23.552-24.576 28.672-28.672 24.576 24.576zM538.624 516.864l-29.696 28.672-23.552-23.552 28.672-28.672 24.576 23.552zM537.6 442.112l-28.672 28.672-24.576-23.552 28.672-28.672 24.576 23.552zM539.648 369.408l-29.696 29.696-23.552-24.576 28.672-28.672 24.576 23.552zM693.248 126.72h-358.4v-33.792h358.4v33.792z" />
<glyph unicode="&#xe809;" glyph-name="bidet-light" d="M911.36 553.728h-624.64v-34.816h624.64v34.816zM545.792-9.472h-436.224c-10.24 0-17.408 6.144-17.408 16.384v444.416c0 10.24 7.168 16.384 17.408 16.384h747.52c10.24 0 16.384-6.144 16.384-16.384v-143.36c0-86.016-67.584-153.6-153.6-153.6h-180.224l20.48-143.36c0-4.096 0-10.24-4.096-14.336 0-3.072-6.144-6.144-10.24-6.144zM125.952 24.32h399.36l-20.48 143.36c0 3.072 0 10.24 4.096 13.312 3.072 4.096 6.144 7.168 13.312 7.168h201.728c64.512 0 118.784 54.272 118.784 119.808v125.952h-716.8v-409.6zM719.872 188.16h-282.624v-33.792h282.624v33.792zM225.28 451.328h-33.792v197.632c0 17.408-14.336 30.72-30.72 30.72-17.408 0-30.72-13.312-30.72-30.72v-194.56h-34.816v194.56c0 37.888 30.72 64.512 65.536 64.512 36.864 0 64.512-30.72 64.512-64.512v-197.632z" />
<glyph unicode="&#xe80a;" glyph-name="roller-light" d="M596.992 583.424h-290.816c-31.744 0-57.344 25.6-57.344 56.32v78.848c0 30.72 25.6 56.32 57.344 56.32h460.8c31.744 0 56.32-25.6 56.32-56.32v-78.848c0-9.216-7.168-16.384-16.384-16.384s-17.408 7.168-17.408 16.384v78.848c0 12.288-10.24 22.528-22.528 22.528h-460.8c-12.288 0-22.528-10.24-22.528-22.528v-78.848c0-12.288 10.24-22.528 22.528-22.528h290.816c10.24 0 17.408-7.168 17.408-16.384 0-10.24-7.168-17.408-17.408-17.408zM823.296 631.552h-16.384c-9.216 0-17.408 8.192-17.408 17.408v60.416c0 9.216 8.192 16.384 17.408 16.384h16.384c26.624 0 47.104-20.48 47.104-47.104 0-25.6-20.48-47.104-47.104-47.104zM823.296 666.368v0c7.168 0 13.312 5.12 13.312 12.288s-6.144 13.312-13.312 13.312v0-25.6zM772.096 365.312c-28.672 0-52.224 22.528-52.224 51.2v137.216c-2.048 0-3.072 0-5.12 1.024-8.192-9.216-19.456-15.36-30.72-16.384 0-28.672-23.552-52.224-52.224-52.224s-51.2 23.552-51.2 52.224v119.808c0 10.24 7.168 17.408 16.384 17.408 10.24 0 17.408-7.168 17.408-17.408v-119.808c0-10.24 8.192-18.432 17.408-18.432 10.24 0 18.432 8.192 18.432 18.432v17.408c0 5.12 2.048 10.24 6.144 14.336 4.096 3.072 10.24 4.096 15.36 2.048 10.24-3.072 17.408 2.048 20.48 9.216 2.048 4.096 5.12 7.168 10.24 9.216 4.096 1.024 8.192 1.024 12.288-1.024 5.12-2.048 10.24-2.048 15.36 0s11.264 2.048 16.384-1.024c5.12-3.072 8.192-9.216 8.192-14.336v-157.696c0-9.216 7.168-17.408 17.408-17.408 9.216 0 17.408 8.192 17.408 17.408v229.376c0 9.216 7.168 17.408 17.408 17.408 9.216 0 16.384-8.192 16.384-17.408v-229.376c0-28.672-22.528-51.2-51.2-51.2zM547.84-37.12h-22.528c-51.2 0-92.16 41.984-92.16 93.184v189.44c0 47.104 33.792 73.728 92.16 73.728h22.528c58.368 0 92.16-26.624 92.16-73.728v-189.44c0-51.2-41.984-93.184-92.16-93.184zM525.312 285.44c-58.368 0-58.368-29.696-58.368-39.936v-189.44c0-32.768 26.624-58.368 58.368-58.368h22.528c31.744 0 57.344 25.6 57.344 58.368v189.44c0 10.24 0 39.936-57.344 39.936h-22.528zM566.272 283.392c-1.024 0-1.024 0-2.048 0-5.12 1.024-11.264 2.048-16.384 2.048h-22.528c-6.144 0-11.264-1.024-16.384-2.048-5.12 0-10.24 1.024-13.312 4.096-4.096 4.096-6.144 8.192-6.144 13.312v75.776c0 15.36-12.288 27.648-27.648 27.648h-220.16c-67.584 0-122.88 55.296-122.88 121.856v77.824c0 67.584 55.296 121.856 122.88 121.856h24.576c9.216 0 17.408-7.168 17.408-16.384v-60.416c0-9.216-8.192-17.408-17.408-17.408h-24.576c-16.384 0-28.672-12.288-28.672-27.648v-77.824c0-15.36 12.288-27.648 28.672-27.648h220.16c66.56 0 121.856-54.272 121.856-121.856v-75.776c0-5.12-2.048-9.216-6.144-13.312-3.072-2.048-7.168-4.096-11.264-4.096zM525.312 319.232h22.528c0 0 1.024 0 2.048 0v57.344c0 48.128-39.936 88.064-88.064 88.064h-220.16c-34.816 0-62.464 27.648-62.464 61.44v77.824c0 34.816 27.648 62.464 62.464 62.464h7.168v25.6h-7.168c-49.152 0-88.064-38.912-88.064-88.064v-77.824c0-48.128 38.912-87.040 88.064-87.040h220.16c33.792 0 61.44-28.672 61.44-62.464v-57.344c1.024 0 1.024 0 2.048 0zM540.672 202.496h-8.192c-10.24 0-17.408 8.192-17.408 17.408s7.168 17.408 17.408 17.408h8.192c9.216 0 17.408-8.192 17.408-17.408s-8.192-17.408-17.408-17.408zM540.672 125.696h-8.192c-10.24 0-17.408 7.168-17.408 16.384 0 10.24 7.168 17.408 17.408 17.408h8.192c9.216 0 17.408-7.168 17.408-17.408 0-9.216-8.192-16.384-17.408-16.384zM540.672 47.872h-8.192c-10.24 0-17.408 8.192-17.408 17.408s7.168 17.408 17.408 17.408h8.192c9.216 0 17.408-8.192 17.408-17.408s-8.192-17.408-17.408-17.408z" />
<glyph unicode="&#xe80b;" glyph-name="bed-light" d="M904.192 185.088h-784.384c-10.24 0-17.408 6.144-17.408 16.384v143.36c0 10.24 7.168 17.408 17.408 17.408h784.384c10.24 0 17.408-7.168 17.408-17.408v-143.36c0-10.24-7.168-16.384-17.408-16.384zM136.192 218.88h751.616v109.568h-751.616v-109.568zM529.408 379.648h-34.816v44.032c0 23.552-20.48 48.128-47.104 48.128h-157.696c-26.624 0-47.104-20.48-47.104-48.128v-44.032h-34.816v44.032c0 44.032 37.888 81.92 81.92 81.92h157.696c44.032 0 81.92-37.888 81.92-81.92v-44.032zM812.032 379.648h-33.792v44.032c0 23.552-20.48 48.128-48.128 48.128h-156.672c-23.552 0-48.128-20.48-48.128-48.128v-44.032h-33.792v44.032c0 44.032 37.888 81.92 81.92 81.92h156.672c45.056 0 81.92-37.888 81.92-81.92v-44.032zM898.048 331.52h-34.816v194.56c0 23.552-20.48 44.032-44.032 44.032h-611.328c-23.552 0-44.032-20.48-44.032-44.032v-194.56h-33.792v194.56c0 44.032 36.864 78.848 77.824 78.848h608.256c44.032 0 77.824-37.888 77.824-78.848v-194.56h4.096zM218.112 99.072h-67.584c-10.24 0-17.408 7.168-17.408 17.408v89.088c0 10.24 7.168 16.384 17.408 16.384h136.192c7.168 0 13.312-3.072 17.408-10.24 3.072-6.144 3.072-13.312-4.096-16.384l-67.584-89.088c-4.096-7.168-10.24-7.168-14.336-7.168zM166.912 133.888h45.056l40.96 54.272h-86.016v-54.272zM873.472 99.072h-67.584c-7.168 0-10.24 4.096-14.336 7.168l-67.584 89.088c-4.096 6.144-4.096 13.312-4.096 16.384 4.096 7.168 10.24 10.24 17.408 10.24h136.192c10.24 0 17.408-6.144 17.408-16.384v-89.088c0-10.24-7.168-17.408-17.408-17.408zM816.128 133.888h44.032v54.272h-84.992l40.96-54.272z" />
<glyph unicode="&#xe80c;" glyph-name="exchange-light" d="M136.192 334.592h-33.792v17.408c0 109.568 40.96 211.968 119.808 289.792 77.824 75.776 180.224 119.808 289.792 119.808h40.96l-112.64-112.64-23.552 23.552 51.2 51.2c-81.92-10.24-160.768-47.104-222.208-105.472-68.608-71.68-109.568-166.912-109.568-266.24v-17.408zM256 352c0-140.288 112.64-256 256-256s259.072 115.712 259.072 256c0 140.288-115.712 256-259.072 256-140.288 0-256-115.712-256-256zM289.792 352c0 122.88 99.328 222.208 222.208 222.208s225.28-99.328 225.28-222.208c0-122.88-102.4-222.208-225.28-222.208s-222.208 99.328-222.208 222.208zM529.408 208.64l3.072-33.792c10.24 0 23.552 3.072 37.888 10.24l-10.24 30.72c-10.24-4.096-20.48-7.168-30.72-7.168zM440.32 188.16c6.144-2.048 12.288-5.12 17.408-7.168l10.24 30.72c-5.12 2.048-9.216 5.12-14.336 7.168v0c-4.096 3.072-8.192 5.12-13.312 7.168l-17.408-30.72c5.12-2.048 11.264-4.096 17.408-7.168zM607.232 242.432l24.576-23.552c10.24 7.168 16.384 17.408 23.552 27.648l-27.648 20.48c-6.144-10.24-13.312-17.408-20.48-24.576zM348.16 277.248l20.48-30.72 23.552 16.384c-1.024 5.12-4.096 10.24-6.144 14.336-3.072 4.096-5.12 8.192-7.168 13.312l-30.72-13.312zM652.288 321.28l33.792-7.168c3.072 14.336 3.072 24.576 3.072 37.888v3.072l-33.792-3.072c0-10.24 0-20.48-3.072-30.72zM337.92 389.888c-3.072-14.336-3.072-24.576-3.072-37.888h33.792c0 10.24 0 20.48 3.072 30.72l-33.792 7.168zM633.856 431.872c5.12-6.144 9.216-11.264 11.264-18.432l30.72 17.408-20.48 30.72-27.648-20.48c2.048-3.072 4.096-6.144 6.144-9.216zM365.568 457.472l26.624-20.48c7.168 7.168 14.336 14.336 20.48 24.576l-23.552 23.552c-7.168-7.168-17.408-17.408-23.552-27.648zM570.368 485.12c4.096-2.048 8.192-5.12 13.312-7.168l17.408 34.816c-5.12 1.024-11.264 4.096-17.408 6.144v0c-6.144 3.072-12.288 5.12-17.408 7.168l-10.24-33.792c5.12-2.048 10.24-4.096 14.336-7.168v0zM453.632 523.008l14.336-34.816c6.144 4.096 16.384 7.168 26.624 7.168l-3.072 33.792c-13.312 0-27.648-3.072-37.888-6.144zM512 334.592c-30.72 0-58.368 27.648-58.368 58.368v13.312c0 25.6 18.432 48.128 40.96 55.296v13.312c0 10.24 7.168 17.408 17.408 17.408s17.408-7.168 17.408-17.408v-13.312c22.528-7.168 40.96-29.696 40.96-55.296 0-10.24-7.168-16.384-17.408-16.384s-17.408 6.144-17.408 16.384c0 14.336-10.24 24.576-23.552 24.576s-23.552-10.24-23.552-24.576v-13.312c0-13.312 10.24-23.552 23.552-23.552 30.72 0 58.368-27.648 58.368-58.368v-17.408c0-24.576-18.432-47.104-40.96-55.296v-9.216c0-7.168-7.168-17.408-17.408-17.408s-17.408 7.168-17.408 17.408v9.216c-22.528 8.192-40.96 30.72-40.96 55.296 0 10.24 7.168 17.408 17.408 17.408s17.408-7.168 17.408-17.408c0-13.312 10.24-23.552 23.552-23.552s23.552 10.24 23.552 23.552v17.408c0 13.312-10.24 23.552-23.552 23.552zM583.68 55.040l-112.64-112.64h40.96c225.28 0 409.6 184.32 409.6 409.6v17.408h-33.792v-17.408c0-191.488-147.456-351.232-331.776-371.712l51.2 51.2-23.552 23.552z" />
<glyph unicode="&#xe80d;" glyph-name="chair-light" d="M706.56 180.992h-389.12c-27.648 0-51.2 24.576-51.2 51.2v71.68c0 27.648 23.552 51.2 51.2 51.2h389.12c27.648 0 51.2-23.552 51.2-51.2v-71.68c0-30.72-23.552-51.2-51.2-51.2zM317.44 318.208c-10.24 0-17.408-7.168-17.408-17.408v-71.68c0-7.168 7.168-13.312 17.408-13.312h389.12c10.24 0 17.408 6.144 17.408 16.384v71.68c0 10.24-7.168 17.408-17.408 17.408h-389.12v-3.072zM345.088-54.528h-51.2c-4.096 0-10.24 4.096-14.336 7.168-3.072 3.072-3.072 10.24-3.072 13.312l33.792 235.52c0 7.168 7.168 14.336 17.408 14.336h89.088c6.144 0 10.24-4.096 13.312-7.168s3.072-10.24 3.072-13.312l-67.584-235.52c-7.168-10.24-14.336-14.336-20.48-14.336zM314.368-19.712h20.48l57.344 200.704h-51.2l-26.624-200.704zM730.112-54.528h-51.2c-6.144 0-13.312 4.096-16.384 14.336l-68.608 235.52c0 6.144 0 10.24 3.072 13.312 4.096 3.072 7.168 7.168 14.336 7.168h88.064c7.168 0 17.408-7.168 17.408-14.336l33.792-235.52c0-3.072 0-10.24-3.072-13.312-7.168-7.168-10.24-7.168-17.408-7.168zM693.248-19.712h20.48l-30.72 200.704h-51.2l61.44-200.704zM686.080 523.008h-348.16c-10.24 0-17.408 6.144-17.408 16.384v153.6c0 37.888 30.72 68.608 68.608 68.608h248.832c37.888 0 68.608-30.72 68.608-68.608v-153.6c-3.072-10.24-10.24-16.384-20.48-16.384zM355.328 556.8h313.344v136.192c0 17.408-13.312 34.816-33.792 34.816h-248.832c-17.408 0-34.816-14.336-34.816-34.816v-136.192h4.096zM355.328 505.6h-34.816v-136.192h34.816v136.192zM703.488 505.6h-34.816v-136.192h34.816v136.192z" />
<glyph unicode="&#xe80e;" glyph-name="user-light" d="M503.473 266.667c136.673 0 247.467 110.793 247.467 247.467 0 136.672-110.793 247.467-247.467 247.467s-247.467-110.795-247.467-247.467c0-136.673 110.793-247.467 247.467-247.467zM699.74 514.133c0-108.394-87.873-196.267-196.267-196.267s-196.267 87.873-196.267 196.267c0 108.395 87.873 196.267 196.267 196.267s196.267-87.871 196.267-196.267zM516.273 235.776c-83.016 0-163.983-25.76-231.739-73.728-67.755-47.968-118.956-115.777-146.54-194.075-4.698-13.336 2.304-27.955 15.639-32.652s27.954 2.304 32.652 15.64c24.063 68.304 68.727 127.454 127.832 169.298s129.738 64.317 202.155 64.317c72.417 0 143.049-22.473 202.155-64.317s103.772-100.994 127.833-169.298c4.7-13.336 19.316-20.337 32.652-15.64s20.337 19.316 15.64 32.652c-27.583 78.298-78.787 146.108-146.541 194.075s-148.722 73.728-231.738 73.728z" />
<glyph unicode="&#xe80f;" glyph-name="search-light" d="M655.551 172.244l222.43-222.461c9.998-9.998 26.208-9.998 36.205-0.003 9.998 9.998 9.998 26.208 0.003 36.205l-222.444 222.474c80.135 93.587 105.417 228.031 53.958 349.114-72.356 170.251-269.025 249.611-439.278 177.256-170.251-72.355-249.611-269.026-177.256-439.276s269.026-249.61 439.276-177.258c32.485 13.807 61.662 32.14 87.105 53.948zM176.291 315.58c-61.295 144.227 5.935 310.834 150.161 372.129s310.834-5.935 372.13-150.161c46.298-108.945 19.265-230.658-58.894-310.107-0.56-0.471-1.103-0.969-1.628-1.495-0.532-0.532-1.034-1.082-1.509-1.645-24.695-24.323-54.296-44.503-88.132-58.883-144.227-61.293-310.834 5.936-372.129 150.163z" />
<glyph unicode="&#xe810;" glyph-name="men-light" d="M340.992 556.8c0 84.992 69.632 153.6 153.6 153.6 84.992 0 153.6-68.608 153.6-153.6s-68.608-153.6-153.6-153.6c-83.968 0-153.6 68.608-153.6 153.6zM494.592 761.6c-112.64 0-204.8-91.136-204.8-204.8 0-112.64 92.16-204.8 204.8-204.8 113.664 0 204.8 92.16 204.8 204.8 0 113.664-91.136 204.8-204.8 204.8zM277.504 185.088c58.368 57.344 136.192 90.112 217.088 90.112 81.92 0 159.744-32.768 218.112-90.112 57.344-57.344 89.088-135.168 89.088-217.088 0-14.336 12.288-25.6 25.6-25.6 14.336 0 25.6 11.264 25.6 25.6 0 95.232-36.864 186.368-104.448 253.952-67.584 66.56-158.72 104.448-253.952 104.448-94.208 0-185.344-37.888-252.928-104.448-67.584-67.584-105.472-158.72-105.472-253.952 0-14.336 12.288-25.6 25.6-25.6 14.336 0 25.6 11.264 25.6 25.6 0 81.92 32.768 159.744 90.112 217.088z" />
<glyph unicode="&#xe811;" glyph-name="bag-light" d="M519.168 787.2c-37.888 0-74.752-13.312-103.424-36.864-29.696-24.576-49.152-58.368-56.32-95.232-3.072-14.336 6.144-27.648 20.48-29.696 14.336-3.072 27.648 6.144 29.696 20.48 5.12 25.6 18.432 48.128 38.912 64.512 19.456 16.384 44.032 25.6 70.656 25.6 25.6 0 50.176-9.216 70.656-25.6 19.456-16.384 32.768-38.912 37.888-64.512 3.072-14.336 16.384-23.552 29.696-20.48 14.336 2.048 23.552 15.36 20.48 29.696-7.168 36.864-26.624 70.656-55.296 95.232-29.696 23.552-65.536 36.864-103.424 36.864zM775.168 569.088h-513.024c-18.432 0-35.84-5.12-50.176-17.408-14.336-11.264-24.576-27.648-27.648-46.080 0 0 0-1.024 0-1.024l-72.704-505.856c0-1.024 0-2.048-1.024-3.072-1.024-19.456 6.144-38.912 19.456-53.248 12.288-14.336 30.72-23.552 50.176-25.6 1.024 0 1.024 0 2.048 0h665.6c19.456-1.024 37.888 5.12 53.248 18.432 14.336 13.312 23.552 30.72 25.6 51.2 0 0 0 1.024 0 1.024v6.144c0 1.024 0 3.072 0 4.096l-73.728 505.856v1.024c-3.072 18.432-12.288 34.816-26.624 47.104-14.336 11.264-32.768 17.408-51.2 17.408zM776.192 517.888v0c6.144 0 12.288-2.048 17.408-6.144s8.192-9.216 9.216-15.36l72.704-504.832v-2.048c-1.024-6.144-4.096-11.264-8.192-15.36-5.12-4.096-11.264-6.144-17.408-6.144 0 0-1.024 0-1.024 0h-665.6c-6.144 1.024-11.264 3.072-15.36 8.192-4.096 4.096-6.144 10.24-6.144 16.384l72.704 504.832c1.024 5.12 5.12 11.264 9.216 14.336 5.12 4.096 11.264 6.144 17.408 6.144 0 0 0 0 1.024 0h514.048z" />
<glyph unicode="&#xe812;" glyph-name="down-solid" d="M512 215.808l-136.192 238.592h272.384l-136.192-238.592z" />
<glyph unicode="&#xe813;" glyph-name="player-solid" d="M512 761.6c-226.304 0-409.6-183.296-409.6-409.6s183.296-409.6 409.6-409.6c226.304 0 409.6 183.296 409.6 409.6s-183.296 409.6-409.6 409.6zM512 24.32c-180.224 0-327.68 147.456-327.68 327.68s147.456 327.68 327.68 327.68c180.224 0 327.68-147.456 327.68-327.68s-147.456-327.68-327.68-327.68zM430.080 188.16l245.76 163.84-245.76 163.84v-327.68z" />
<glyph unicode="&#xe814;" glyph-name="search-long-solid" d="M674.816 253.696h-34.816l-13.312 10.24c41.984 51.2 67.584 114.688 67.584 186.368 0 158.72-125.952 285.696-283.648 285.696-155.648 0-282.624-126.976-282.624-285.696 0-157.696 126.976-284.672 284.672-284.672 69.632 0 135.168 26.624 185.344 67.584l13.312-10.24v-35.84l219.136-219.136 65.536 65.536-221.184 220.16zM412.672 253.696c-109.568 0-196.608 87.040-196.608 196.608 0 110.592 87.040 197.632 196.608 197.632s196.608-87.040 196.608-197.632c0-109.568-87.040-196.608-196.608-196.608z" />
<glyph unicode="&#xe815;" glyph-name="twitter-solid" d="M881.664 368.384c21.504-1.024 41.984 4.096 60.416 15.36 18.432 10.24 33.792 25.6 44.032 44.032-35.84-16.384-75.776-20.48-113.664-12.288 0 7.168-3.072 15.36-4.096 21.504-11.264 46.080-36.864 87.040-73.728 115.712-37.888 28.672-82.944 44.032-130.048 44.032l22.528 8.192c10.24 0 68.608 12.288 60.416 33.792-9.216 20.48-79.872-14.336-93.184-18.432 17.408 7.168 47.104 18.432 50.176 38.912-27.648-4.096-54.272-16.384-74.752-35.84 7.168 8.192 12.288 18.432 14.336 28.672-72.704-47.104-115.712-140.288-149.504-231.424-21.504 23.552-46.080 43.008-72.704 59.392-78.848 41.984-160.768 77.824-245.76 108.544 1.024-25.6 8.192-50.176 23.552-71.68 14.336-21.504 34.816-37.888 58.368-48.128-20.48 1.024-40.96-1.024-60.416-6.144 9.216-43.008 34.816-78.848 107.52-96.256-12.288 1.024-24.576-1.024-35.84-5.12-11.264-5.12-20.48-11.264-29.696-20.48 11.264-21.504 28.672-38.912 50.176-50.176 21.504-10.24 46.080-13.312 69.632-9.216-73.728-31.744-29.696-90.112 29.696-81.92-46.080-47.104-109.568-74.752-176.128-76.8-65.536-2.048-130.048 22.528-179.2 67.584 239.616-328.704 764.928-194.56 842.752 119.808 21.504-1.024 41.984 3.072 62.464 11.264 19.456 7.168 36.864 19.456 51.2 35.84-36.864-5.12-73.728-1.024-108.544 11.264z" />
<glyph unicode="&#xe816;" glyph-name="close-solid" d="M510.976 424.704l-335.872 336.896-72.704-72.704 336.896-335.872-336.896-336.896 73.728-73.728 336.896 336.896 334.848-334.848 72.704 71.68-334.848 334.848 335.872 336.896-73.728 73.728-336.896-336.896z" />
<glyph unicode="&#xe817;" glyph-name="rescue-solid" d="M512 761.6c-224.256 0-409.6-185.344-409.6-409.6s185.344-409.6 409.6-409.6c224.256 0 409.6 185.344 409.6 409.6s-185.344 409.6-409.6 409.6zM512 159.488c-106.496 0-192.512 86.016-192.512 192.512s86.016 192.512 192.512 192.512c106.496 0 192.512-86.016 192.512-192.512s-86.016-192.512-192.512-192.512zM494.592 725.76v-149.504c-110.592-7.168-199.68-96.256-206.848-206.848h-149.504c7.168 192.512 163.84 349.184 356.352 356.352zM529.408-21.76v149.504c110.592 7.168 199.68 96.256 206.848 206.848h149.504c-7.168-192.512-163.84-349.184-356.352-356.352z" />
<glyph unicode="&#xe818;" glyph-name="chevron-right-solid" d="M409.6-57.6l307.2 367.616v84.992l-307.2 366.592v-217.088l182.272-191.488-182.272-194.56v-216.064z" />
<glyph unicode="&#xe819;" glyph-name="chevron-left-solid" d="M625.664-57.6l-318.464 367.616v84.992l318.464 366.592v-217.088l-188.416-191.488 188.416-194.56v-216.064z" />
<glyph unicode="&#xe81a;" glyph-name="double-bed-solid" d="M256 635.648h515.072v-211.968h-54.272c0 0 0 0 0 3.072v89.088c0 20.48-17.408 37.888-37.888 37.888h-118.784c-20.48 0-37.888-17.408-37.888-37.888v-89.088c0 0 0 0 0-3.072h-30.72c0 0 0 0 0 3.072v89.088c0 20.48-17.408 37.888-37.888 37.888h-118.784c-10.24-4.096-27.648-20.48-27.648-40.96v-89.088c0 0 0 0 0-3.072h-51.2v215.040zM560.128 423.68l3.072 92.16 119.808-3.072v-89.088c0 0 0-3.072-4.096-3.072l-118.784 3.072zM340.992 423.68l4.096 92.16 118.784-3.072v-89.088c0 0 0-3.072-3.072-3.072l-119.808 3.072zM181.248 321.28c0 37.888 30.72 68.608 67.584 68.608h529.408c37.888 0 68.608-30.72 68.608-68.608v-61.44h-665.6v61.44zM256 68.352h-68.608v48.128h68.608v-48.128zM836.608 68.352h-68.608v48.128h68.608v-48.128zM883.712 150.272h-743.424v71.68h747.52v-71.68h-4.096z" />
<glyph unicode="&#xe81b;" glyph-name="car-solid" d="M317.44 119.552c30.72 0 54.272 24.576 54.272 55.296 0 29.696-23.552 54.272-54.272 54.272-29.696 0-54.272-24.576-54.272-54.272 0-30.72 24.576-55.296 54.272-55.296zM525.312 587.52h-149.504c-14.336 0-24.576-7.168-27.648-17.408l-44.032-105.472h221.184v122.88zM870.4 392.96l-64.512 33.792h-526.336l-122.88-33.792c-10.24 0-20.48-13.312-20.48-27.648v-143.36c0-16.384 14.336-30.72 30.72-30.72h61.44v4.096c0 3.072 4.096 6.144 4.096 10.24 0 3.072 3.072 3.072 3.072 6.144 3.072 4.096 3.072 7.168 7.168 10.24 0 4.096 3.072 4.096 3.072 7.168 3.072 3.072 3.072 3.072 7.168 7.168l3.072 3.072c3.072 3.072 3.072 3.072 7.168 7.168 3.072 3.072 3.072 3.072 6.144 3.072 4.096 3.072 7.168 3.072 10.24 3.072 4.096 0 4.096 4.096 7.168 4.096s7.168 3.072 10.24 3.072c3.072 0 3.072 0 7.168 0 6.144 0 10.24 3.072 16.384 3.072 7.168 0 10.24 0 17.408-3.072 3.072 0 3.072 0 7.168 0 3.072 0 6.144-3.072 10.24-3.072 3.072 0 3.072-4.096 6.144-4.096 4.096 0 7.168-3.072 10.24-3.072 4.096 0 4.096-3.072 7.168-3.072 3.072-4.096 3.072-4.096 7.168-7.168l3.072-3.072c3.072-4.096 3.072-4.096 7.168-7.168 0-3.072 3.072-3.072 3.072-7.168 3.072-3.072 3.072-6.144 3.072-10.24 0-3.072 4.096-3.072 4.096-6.144 0-4.096 3.072-7.168 3.072-10.24v-4.096h232.448v4.096c0 3.072 3.072 6.144 3.072 10.24 0 3.072 3.072 3.072 3.072 6.144 0 4.096 4.096 7.168 4.096 10.24 0 4.096 3.072 4.096 3.072 7.168 3.072 3.072 3.072 3.072 7.168 7.168l3.072 3.072c3.072 3.072 3.072 3.072 7.168 7.168 3.072 0 3.072 3.072 6.144 3.072 4.096 3.072 7.168 3.072 10.24 3.072 4.096 0 4.096 4.096 7.168 4.096s7.168 3.072 10.24 3.072c3.072 0 3.072 0 7.168 0 6.144 0 10.24 3.072 16.384 3.072 7.168 0 10.24 0 17.408-3.072 3.072 0 3.072 0 7.168 0 3.072 0 6.144-3.072 10.24-3.072 3.072 0 3.072-4.096 6.144-4.096 4.096 0 7.168-3.072 10.24-3.072 4.096 0 4.096-3.072 7.168-3.072 3.072-4.096 3.072-4.096 7.168-7.168l3.072-3.072c3.072-4.096 3.072-4.096 7.168-7.168 0-3.072 3.072-3.072 3.072-7.168 3.072-3.072 3.072-6.144 3.072-10.24 0-3.072 4.096-3.072 4.096-6.144 0-4.096 3.072-7.168 3.072-10.24v-4.096h40.96c17.408 0 30.72 14.336 30.72 30.72v143.36c-3.072 14.336-10.24 24.576-20.48 27.648zM211.968 300.8h-51.2v33.792h51.2v-33.792zM727.040 119.552c30.72 0 54.272 24.576 54.272 55.296 0 29.696-23.552 54.272-54.272 54.272-29.696 0-54.272-24.576-54.272-54.272 0-30.72 24.576-55.296 54.272-55.296zM757.76 563.968c-3.072 13.312-17.408 23.552-30.72 23.552h-166.912v-122.88h225.28l-27.648 99.328z" />
<glyph unicode="&#xe81c;" glyph-name="love-it" d="M337.92 746.24c-33.792 11.264-69.632 14.336-104.448 8.192-35.84-5.12-69.632-19.456-98.304-39.936-28.672-21.504-52.224-49.152-68.608-80.896-21.504-40.96-28.672-89.088-20.48-135.168 7.168-46.080 29.696-89.088 62.464-121.856h1.024l402.432-414.72 403.456 414.72c32.768 32.768 55.296 75.776 62.464 121.856 8.192 46.080 1.024 94.208-20.48 135.168-16.384 31.744-39.936 59.392-68.608 80.896-28.672 20.48-62.464 34.816-97.28 39.936-35.84 6.144-71.68 3.072-105.472-8.192-34.816-10.24-65.536-29.696-91.136-54.272 0 0 0 0 0-1.024l-68.608-61.44c-8.192-8.192-20.48-8.192-28.672 0l-68.608 61.44c0 1.024 0 1.024 0 1.024-25.6 24.576-56.32 44.032-91.136 54.272zM226.304 796.416c41.984 7.168 84.992 4.096 124.928-9.216s76.8-34.816 107.52-64.512l53.248-49.152 53.248 49.152c30.72 29.696 67.584 51.2 107.52 64.512s82.944 16.384 124.928 9.216c41.984-6.144 81.92-22.528 115.712-48.128 34.816-24.576 62.464-57.344 81.92-95.232v0c25.6-49.152 33.792-106.496 25.6-161.792-9.216-54.272-35.84-105.472-75.776-144.384l-417.792-431.104c-4.096-4.096-9.216-6.144-15.36-6.144s-11.264 2.048-15.36 6.144l-417.792 431.104c-39.936 38.912-66.56 90.112-74.752 144.384-9.216 55.296-1.024 112.64 24.576 161.792v0c19.456 37.888 47.104 70.656 81.92 95.232 33.792 25.6 73.728 41.984 115.712 48.128z" />
<glyph unicode="&#xe81d;" glyph-name="monitor-solid" d="M563.2 136.96h-102.4v-48.128c0-16.384-7.168-33.792-13.312-47.104h133.12c-10.24 13.312-14.336 30.72-14.336 47.104v48.128h-3.072zM860.16 662.272h-696.32c-13.312 0-23.552-10.24-23.552-23.552v-358.4h743.424v358.4c0 13.312-10.24 23.552-23.552 23.552zM140.288 195.328c0-14.336 10.24-24.576 23.552-24.576h696.32c13.312 0 23.552 10.24 23.552 24.576v54.272h-743.424v-54.272zM512 229.12c10.24 0 17.408-10.24 17.408-17.408 0-6.144-10.24-16.384-17.408-16.384-10.24 0-17.408 10.24-17.408 16.384 0 7.168 7.168 17.408 17.408 17.408z" />
<glyph unicode="&#xe81e;" glyph-name="dribbble-solid" d="M389.12 743.168c-11.264-4.096-22.528-8.192-33.792-11.264-37.888-15.36-75.776-37.888-105.472-64.512 29.696 0 56.32-4.096 87.040-11.264 22.528 26.624 40.96 52.224 52.224 87.040zM702.464 418.56c60.416 29.696 129.024 40.96 203.776 29.696-18.432 67.584-52.224 128-98.304 177.152-94.208 0-181.248-22.528-260.096-63.488 60.416-34.816 113.664-82.944 154.624-143.36zM509.952 591.616c79.872 45.056 165.888 71.68 261.12 75.776-71.68 60.416-162.816 94.208-261.12 94.208-26.624 0-52.224-4.096-75.776-7.168-11.264-41.984-33.792-75.776-56.32-109.568 45.056-11.264 91.136-30.72 132.096-53.248zM211.968 629.504c-11.264-11.264-22.528-26.624-33.792-41.984-8.192-7.168-15.36-18.432-22.528-29.696 52.224 7.168 105.472 29.696 146.432 64.512-29.696 3.072-60.416 7.168-90.112 7.168zM672.768 399.104c-46.080 56.32-98.304 105.472-162.816 143.36-165.888-101.376-279.552-282.624-279.552-494.592 71.68-67.584 174.080-109.568 279.552-109.568 15.36 0 30.72 0 45.056 4.096-29.696 49.152-45.056 105.472-45.056 165.888 0 120.832 64.512 230.4 162.816 290.816zM917.504 383.744c0 8.192 0 15.36-3.072 23.552 0 3.072 0 3.072 0 7.168-19.456 4.096-37.888 7.168-57.344 7.168-45.056 0-90.112-11.264-132.096-29.696 57.344-87.040 91.136-189.44 98.304-302.080 19.456 18.432 30.72 40.96 45.056 63.488v4.096c4.096 11.264 11.264 19.456 15.36 30.72 0 3.072 4.096 7.168 4.096 7.168 4.096 7.168 7.168 18.432 11.264 26.624 0 4.096 4.096 7.168 4.096 11.264 3.072 7.168 3.072 15.36 7.168 26.624 0 3.072 4.096 7.168 4.096 11.264 0 7.168 3.072 18.432 3.072 26.624 0 3.072 0 7.168 0 11.264 0 11.264 4.096 25.6 4.096 37.888 0 14.336 0 25.6-4.096 36.864zM695.296 369.408c-87.040-53.248-143.36-151.552-143.36-261.12 0-56.32 15.36-112.64 45.056-158.72 22.528 4.096 45.056 11.264 64.512 19.456 3.072 0 3.072 0 7.168 3.072 7.168 4.096 15.36 8.192 22.528 12.288 4.096 3.072 11.264 3.072 15.36 7.168s11.264 4.096 15.36 7.168c7.168 4.096 14.336 8.192 18.432 11.264 4.096 4.096 7.168 4.096 11.264 8.192 8.192 3.072 15.36 11.264 22.528 18.432 0 0 4.096 4.096 8.192 4.096 7.168 4.096 11.264 11.264 18.432 15.36-11.264 112.64-45.056 222.208-105.472 313.344zM472.064 564.992c-37.888 19.456-82.944 34.816-123.904 46.080-57.344-57.344-132.096-91.136-211.968-98.304-22.528-49.152-33.792-105.472-33.792-165.888 0-98.304 33.792-192.512 94.208-261.12 11.264 203.776 117.76 377.856 275.456 479.232z" />
<glyph unicode="&#xe81f;" glyph-name="lips-solid" d="M921.6 208.64c-81.92 115.712-197.632 248.832-345.088 248.832-20.48 0-40.96-3.072-64.512-6.144-20.48 6.144-40.96 6.144-64.512 6.144-147.456 0-263.168-133.12-345.088-248.832-3.072-7.168-3.072-13.312 0-20.48 109.568-153.6 222.208-228.352 345.088-228.352 20.48 0 40.96 3.072 64.512 6.144 20.48-3.072 40.96-6.144 64.512-6.144 122.88 0 235.52 74.752 345.088 228.352 3.072 7.168 3.072 13.312 0 20.48zM852.992 211.712c-3.072-10.24-10.24-20.48-23.552-23.552-10.24-3.072-20.48-7.168-33.792-7.168-17.408 0-37.888 4.096-58.368 10.24-54.272-26.624-115.712-30.72-184.32-30.72h-89.088c-67.584 0-129.024 4.096-184.32 30.72-20.48-6.144-40.96-10.24-57.344-10.24-14.336 0-24.576 4.096-34.816 7.168-6.144 3.072-16.384 10.24-16.384 23.552-4.096 10.24 3.072 17.408 10.24 20.48 10.24 4.096 16.384-3.072 20.48-10.24l3.072-3.072c10.24-7.168 37.888-3.072 68.608 7.168 67.584 36.864 146.432 57.344 235.52 57.344 88.064 0 166.912-20.48 235.52-57.344 30.72-14.336 57.344-14.336 67.584-7.168 4.096 0 4.096 3.072 4.096 3.072 3.072 10.24 13.312 14.336 20.48 10.24 16.384-3.072 20.48-13.312 16.384-20.48zM512 502.528l130.048 156.672c6.144 10.24 10.24 17.408 10.24 30.72 0 30.72-27.648 54.272-65.536 54.272-26.624 0-51.2-13.312-61.44-36.864v-4.096c0-6.144-6.144-10.24-13.312-10.24s-10.24 4.096-13.312 7.168l-4.096 3.072c-10.24 24.576-33.792 37.888-61.44 37.888-33.792 0-64.512-23.552-64.512-54.272 0-10.24 3.072-20.48 10.24-30.72l133.12-153.6zM122.88 570.112c0 0 0-3.072 0 0l84.992-102.4c4.096-3.072 7.168-6.144 14.336-6.144 6.144 0 10.24 3.072 13.312 6.144l84.992 102.4c0 0 0 0 4.096 4.096 6.144 10.24 10.24 20.48 10.24 33.792 0 33.792-30.72 61.44-65.536 61.44-16.384 0-33.792-7.168-47.104-17.408-10.24 7.168-27.648 14.336-45.056 14.336-36.864 0-64.512-27.648-64.512-61.44 0-14.336 3.072-24.576 10.24-30.72 0-4.096 0-4.096 0-4.096zM699.392 570.112c0 0 0-3.072 0 0l86.016-102.4c3.072-3.072 6.144-6.144 13.312-6.144s10.24 3.072 13.312 6.144l86.016 102.4c0 0 0 0 3.072 4.096 7.168 10.24 10.24 20.48 10.24 33.792 0 33.792-30.72 61.44-64.512 61.44-17.408 0-34.816-7.168-48.128-17.408-13.312 10.24-27.648 17.408-48.128 17.408-36.864 0-64.512-27.648-64.512-61.44 0-13.312 3.072-23.552 10.24-30.72 3.072-7.168 3.072-7.168 3.072-7.168z" />
<glyph unicode="&#xe820;" glyph-name="search-solid" d="M899.072 81.664l-169.984 172.032c27.648 48.128 41.984 102.4 41.984 155.648 0 175.104-142.336 318.464-317.44 318.464s-317.44-143.36-317.44-318.464c0-175.104 142.336-317.44 317.44-317.44 56.32 0 111.616 15.36 160.768 45.056l167.936-172.032c4.096-3.072 9.216-6.144 15.36-6.144 5.12 0 10.24 3.072 14.336 6.144l87.040 88.064c7.168 8.192 7.168 21.504 0 28.672zM453.632 603.904c106.496 0 193.536-87.040 193.536-194.56 0-106.496-87.040-193.536-193.536-193.536s-193.536 87.040-193.536 193.536c0 107.52 87.040 194.56 193.536 194.56z" />
<glyph unicode="&#xe821;" glyph-name="heart-solid" d="M866.304 664.32c-80.896 83.968-211.968 83.968-292.864 0l-55.296-57.344-54.272 57.344c-80.896 83.968-211.968 83.968-292.864 0-91.136-94.208-91.136-247.808 0-343.040l347.136-362.496 348.16 362.496c91.136 94.208 91.136 247.808 0 343.040z" />
<glyph unicode="&#xe822;" glyph-name="cart-solid" d="M346.112 109.312c-46.080 0-83.968-37.888-83.968-83.968 0-45.056 37.888-82.944 83.968-82.944 45.056 0 82.944 37.888 82.944 82.944 0 46.080-37.888 83.968-82.944 83.968zM102.4 761.6v-82.944h82.944l150.528-303.104-63.488-102.4c-6.144-10.24-10.24-24.576-10.24-39.936 0-55.296 37.888-82.944 90.112-82.944h486.4v79.872h-476.16c-6.144 0-10.24 4.096-10.24 10.24 0 2.048 4.096 11.264 4.096 11.264l40.96 65.536h310.272c31.744 0 58.368 16.384 72.704 43.008l149.504 258.048c3.072 5.12 5.12 12.288 5.12 20.48 0 23.552-19.456 39.936-41.984 39.936h-615.424l-39.936 82.944h-135.168zM755.712 109.312c-46.080 0-83.968-37.888-83.968-83.968 0-45.056 37.888-82.944 83.968-82.944 45.056 0 82.944 37.888 82.944 82.944 0 46.080-37.888 83.968-82.944 83.968z" />
<glyph unicode="&#xe823;" glyph-name="skype-solid" d="M904.192 251.648c35.84 138.24-4.096 286.72-105.472 387.072-76.8 76.8-178.176 118.784-286.72 118.784-33.792 0-67.584-4.096-100.352-12.288-27.648 11.264-56.32 16.384-86.016 16.384-59.392 0-115.712-23.552-157.696-65.536-64.512-63.488-82.944-158.72-48.128-242.688-35.84-138.24 4.096-286.72 105.472-388.096 76.8-76.8 178.176-118.784 286.72-118.784 33.792 0 67.584 5.12 101.376 13.312 26.624-11.264 55.296-17.408 84.992-17.408 59.392 0 115.712 23.552 157.696 65.536 64.512 64.512 82.944 159.744 48.128 243.712zM512 386.816c2.048 0 5.12 0 9.216-1.024 73.728-5.12 131.072-65.536 131.072-138.24v-13.312c0-76.8-63.488-140.288-140.288-140.288s-139.264 63.488-139.264 140.288c0 19.456 15.36 34.816 33.792 34.816 19.456 0 34.816-15.36 34.816-34.816 0-38.912 31.744-70.656 70.656-70.656s70.656 31.744 70.656 70.656v13.312c0 38.912-31.744 69.632-70.656 69.632-2.048 0-4.096 1.024-9.216 1.024-73.728 5.12-131.072 66.56-131.072 139.264v13.312c0 76.8 63.488 139.264 140.288 139.264s140.288-62.464 140.288-139.264c0-19.456-16.384-34.816-34.816-34.816-19.456 0-34.816 15.36-34.816 34.816 0 38.912-31.744 69.632-70.656 69.632s-70.656-30.72-70.656-69.632v-13.312c0-38.912 31.744-70.656 70.656-70.656z" />
<glyph unicode="&#xe824;" glyph-name="person-solid" d="M904.192-40.192c0 0 0 52.224-4.096 79.872-3.072 22.528-33.792 51.2-161.792 98.304-126.976 46.080-118.784 23.552-118.784 108.544 0 55.296 27.648 23.552 46.080 129.024 7.168 40.96 12.288 13.312 27.648 79.872 8.192 34.816-5.12 37.888-4.096 54.272 2.048 16.384 4.096 30.72 6.144 65.536 4.096 41.984-34.816 152.576-175.104 152.576-139.264 0-178.176-110.592-175.104-153.6 3.072-33.792 5.12-48.128 7.168-64.512 1.024-17.408-12.288-19.456-4.096-54.272 15.36-66.56 20.48-38.912 27.648-79.872 18.432-105.472 46.080-73.728 46.080-129.024 0-84.992 8.192-62.464-118.784-108.544-128-47.104-158.72-76.8-161.792-98.304-5.12-27.648-5.12-79.872-5.12-79.872h768z" />
<glyph unicode="&#xe825;" glyph-name="youtube-solid" d="M921.6 502.528c0 32.768-13.312 63.488-35.84 87.040-22.528 22.528-54.272 35.84-86.016 35.84h-574.464c-32.768 0-64.512-13.312-87.040-35.84-22.528-23.552-35.84-54.272-35.84-87.040v-328.704c0-31.744 13.312-63.488 35.84-86.016 22.528-23.552 54.272-35.84 87.040-35.84h574.464c31.744 0 63.488 12.288 86.016 35.84 22.528 22.528 35.84 54.272 35.84 86.016v328.704zM430.080 199.424v307.2l234.496-153.6-234.496-153.6z" />
<glyph unicode="&#xe826;" glyph-name="fb-solid" d="M390.144 600.832v-110.592h-82.944v-138.24h82.944v-409.6h168.96v409.6h114.688c0 0 10.24 66.56 15.36 138.24h-129.024v94.208c2.048 9.216 6.144 17.408 13.312 23.552 6.144 6.144 14.336 9.216 23.552 10.24h92.16v143.36h-124.928c-178.176-1.024-174.080-140.288-174.080-160.768z" />
<glyph unicode="&#xe827;" glyph-name="notification-solid" d="M481.28 215.808v354.304l440.32 157.696v-672.768l-440.32 160.768zM612.352 495.36l189.44 68.608c11.264 3.072 15.36 13.312 11.264 23.552-7.168 10.24-15.36 13.312-26.624 10.24l-189.44-68.608c-11.264-6.144-15.36-13.312-11.264-23.552 4.096-7.168 11.264-10.24 19.456-10.24h7.168zM102.4 221.952h339.968v342.016h-339.968v-342.016zM156.672-16.64h119.808l50.176 204.8h-119.808l-50.176-204.8z" />
<glyph unicode="&#xe828;" glyph-name="hamberger-solid" d="M865.28-23.808h-671.744c-12.288 0-22.528 10.24-22.528 22.528v135.168c0 12.288 10.24 21.504 22.528 21.504h671.744c12.288 0 22.528-9.216 22.528-21.504v-135.168c0-12.288-10.24-22.528-22.528-22.528zM865.28 245.504h-671.744c-12.288 0-22.528 10.24-22.528 22.528v134.144c0 12.288 10.24 22.528 22.528 22.528h671.744c12.288 0 22.528-10.24 22.528-22.528v-134.144c0-12.288-10.24-22.528-22.528-22.528zM865.28 513.792h-671.744c-12.288 0-22.528 10.24-22.528 22.528v135.168c0 12.288 10.24 21.504 22.528 21.504h671.744c12.288 0 22.528-9.216 22.528-21.504v-135.168c0-12.288-10.24-22.528-22.528-22.528z" />
<glyph unicode="&#xe829;" glyph-name="in-solid" d="M921.6 248.576v-301.056h-175.104v282.624c0 70.656-25.6 118.784-89.088 118.784-19.456 0-38.912-6.144-55.296-17.408-15.36-12.288-27.648-28.672-34.816-47.104-4.096-13.312-6.144-27.648-5.12-41.984v-294.912h-175.104c0 0 2.048 477.184 0 527.36h177.152v-74.752c15.36 27.648 38.912 50.176 66.56 65.536s59.392 22.528 91.136 21.504c113.664-1.024 199.68-79.872 199.68-238.592zM203.776 726.784c-13.312 2.048-25.6 0-37.888-4.096-12.288-3.072-23.552-10.24-32.768-18.432-10.24-9.216-17.408-19.456-22.528-30.72-5.12-12.288-8.192-24.576-8.192-37.888 0-12.288 3.072-24.576 8.192-36.864 5.12-11.264 12.288-22.528 22.528-30.72 9.216-8.192 20.48-15.36 32.768-19.456 12.288-3.072 24.576-5.12 37.888-3.072v0c12.288-2.048 25.6 0 37.888 3.072 12.288 4.096 23.552 11.264 32.768 19.456s17.408 19.456 22.528 30.72c5.12 12.288 7.168 24.576 7.168 36.864 0 13.312-2.048 25.6-7.168 37.888-5.12 11.264-13.312 21.504-22.528 30.72-9.216 8.192-20.48 15.36-32.768 18.432-12.288 4.096-25.6 6.144-37.888 4.096v0zM114.688-52.48h175.104v525.312h-175.104v-525.312z" />
<glyph unicode="&#xe82a;" glyph-name="glass" d="M970.752 757.504q0-19.456-24.576-44.032l-361.472-361.472v-439.296h183.296q15.36 0 25.6-10.24t11.264-25.6-11.264-25.6-25.6-11.264h-512q-14.336 0-25.6 11.264t-11.264 25.6 11.264 25.6 25.6 10.24h183.296v439.296l-361.472 361.472q-24.576 24.576-24.576 44.032 0 13.312 10.24 21.504t21.504 9.216 24.576 3.072h804.864q13.312 0 24.576-3.072t21.504-9.216 10.24-21.504z" />
<glyph unicode="&#xe82b;" glyph-name="music" horiz-adv-x="878" d="M877.568 736v-640q0-28.672-19.456-51.2t-49.152-33.792-59.392-18.432-54.272-6.144-55.296 6.144-59.392 18.432-49.152 33.792-19.456 51.2 19.456 51.2 49.152 33.792 59.392 18.432 55.296 6.144q59.392 0 109.568-22.528v307.2l-439.296-135.168v-405.504q0-28.672-19.456-51.2t-49.152-33.792-59.392-18.432-54.272-6.144-55.296 6.144-59.392 18.432-49.152 33.792-19.456 51.2 19.456 51.2 49.152 34.816 59.392 17.408 55.296 6.144q59.392 0 109.568-21.504v551.936q0 17.408 10.24 32.768t28.672 20.48l475.136 145.408q7.168 3.072 16.384 3.072 22.528 0 38.912-16.384t15.36-38.912z" />
<glyph unicode="&#xe82c;" glyph-name="search" horiz-adv-x="950" d="M658.432 388.864q0 105.472-74.752 180.224t-181.248 75.776-181.248-75.776-74.752-180.224 74.752-181.248 181.248-74.752 181.248 74.752 74.752 181.248zM951.296-87.296q0-29.696-22.528-51.2t-51.2-21.504q-30.72 0-51.2 21.504l-195.584 195.584q-102.4-70.656-228.352-70.656-81.92 0-156.672 31.744t-128 86.016-86.016 128-31.744 156.672 31.744 155.648 86.016 129.024 128 86.016 156.672 31.744 156.672-31.744 128-86.016 86.016-129.024 31.744-155.648q0-125.952-70.656-228.352l195.584-195.584q21.504-21.504 21.504-52.224z" />
<glyph unicode="&#xe82d;" glyph-name="mail" d="M951.296 4.864v438.272q-18.432-20.48-39.936-36.864-152.576-117.76-243.712-193.536-28.672-24.576-47.104-37.888t-49.152-28.672-58.368-13.312h-2.048q-26.624 0-58.368 13.312t-49.152 28.672-47.104 37.888q-90.112 75.776-243.712 193.536-21.504 16.384-39.936 36.864v-438.272q0-7.168 6.144-13.312t12.288-5.12h841.728q7.168 0 12.288 5.12t6.144 13.312zM951.296 604.928v14.336t-1.024 7.168-1.024 7.168-3.072 5.12-5.12 4.096-8.192 2.048h-841.728q-7.168 0-12.288-6.144t-6.144-12.288q0-96.256 84.992-162.816 109.568-86.016 228.352-180.224 4.096-3.072 20.48-17.408t25.6-21.504 25.6-17.408 28.672-16.384 24.576-5.12h2.048q11.264 0 24.576 5.12t28.672 16.384 25.6 17.408 25.6 21.504 20.48 17.408q118.784 94.208 229.376 180.224 30.72 24.576 57.344 66.56t26.624 74.752zM1024 626.432v-621.568q0-37.888-26.624-64.512t-64.512-27.648h-841.728q-36.864 0-64.512 27.648t-26.624 64.512v621.568q0 37.888 26.624 64.512t64.512 26.624h841.728q37.888 0 64.512-26.624t26.624-64.512z" />
<glyph unicode="&#xe82e;" glyph-name="heart" d="M512-87.296q-14.336 0-25.6 10.24l-356.352 344.064q-5.12 5.12-15.36 15.36t-31.744 37.888-38.912 55.296-30.72 68.608-13.312 78.848q0 125.952 72.704 196.608t200.704 71.68q34.816 0 71.68-12.288t68.608-33.792 55.296-38.912 43.008-38.912q20.48 20.48 43.008 38.912t55.296 38.912 68.608 33.792 71.68 12.288q128 0 200.704-71.68t72.704-196.608q0-125.952-131.072-257.024l-355.328-343.040q-10.24-10.24-25.6-10.24z" />
<glyph unicode="&#xe82f;" glyph-name="heart-empty" d="M951.296 523.008q0 47.104-12.288 81.92t-31.744 56.32-47.104 33.792-53.248 18.432-56.32 4.096-63.488-14.336-63.488-36.864-49.152-40.96-34.816-34.816q-10.24-13.312-27.648-13.312t-27.648 13.312q-14.336 15.36-34.816 34.816t-49.152 40.96-63.488 36.864-63.488 14.336-56.32-4.096-53.248-18.432-47.104-33.792-31.744-56.32-12.288-81.92q0-95.232 107.52-202.752l331.776-319.488 331.776 319.488q107.52 107.52 107.52 202.752zM1024 523.008q0-125.952-131.072-257.024l-355.328-343.040q-10.24-10.24-25.6-10.24t-25.6 10.24l-356.352 344.064q-5.12 5.12-15.36 15.36t-31.744 37.888-38.912 55.296-30.72 68.608-13.312 78.848q0 125.952 72.704 196.608t200.704 71.68q34.816 0 71.68-12.288t68.608-33.792 55.296-38.912 43.008-38.912q20.48 20.48 43.008 38.912t55.296 38.912 68.608 33.792 71.68 12.288q128 0 200.704-71.68t72.704-196.608z" />
<glyph unicode="&#xe830;" glyph-name="star" horiz-adv-x="950" d="M951.296 494.336q0-12.288-15.36-27.648l-206.848-201.728 49.152-285.696q0-4.096 0-12.288 0-11.264-6.144-19.456t-17.408-9.216q-10.24 0-22.528 7.168l-257.024 135.168-256-135.168q-12.288-7.168-23.552-7.168t-17.408 9.216-6.144 19.456q0 4.096 1.024 12.288l49.152 285.696-207.872 201.728q-14.336 15.36-14.336 27.648 0 21.504 31.744 26.624l286.72 40.96 129.024 260.096q11.264 23.552 27.648 23.552t28.672-23.552l128-260.096 286.72-40.96q32.768-5.12 32.768-26.624z" />
<glyph unicode="&#xe831;" glyph-name="star-empty" horiz-adv-x="950" d="M650.24 290.56l174.080 169.984-240.64 34.816-108.544 218.112-107.52-218.112-241.664-34.816 175.104-169.984-41.984-240.64 216.064 113.664 216.064-113.664zM951.296 494.336q0-12.288-15.36-27.648l-206.848-201.728 49.152-285.696q0-4.096 0-12.288 0-28.672-23.552-28.672-10.24 0-22.528 7.168l-257.024 135.168-256-135.168q-12.288-7.168-23.552-7.168t-17.408 9.216-6.144 19.456q0 4.096 1.024 12.288l49.152 285.696-207.872 201.728q-14.336 15.36-14.336 27.648 0 21.504 31.744 26.624l286.72 40.96 129.024 260.096q11.264 23.552 27.648 23.552t28.672-23.552l128-260.096 286.72-40.96q32.768-5.12 32.768-26.624z" />
<glyph unicode="&#xe832;" glyph-name="star-half" horiz-adv-x="512" d="M475.136 845.568v-764.928l-256-135.168q-12.288-7.168-23.552-7.168t-17.408 9.216-6.144 19.456q0 4.096 1.024 12.288l49.152 285.696-207.872 201.728q-14.336 15.36-14.336 27.648 0 21.504 31.744 26.624l286.72 40.96 129.024 260.096q11.264 23.552 27.648 23.552z" />
<glyph unicode="&#xe833;" glyph-name="user" horiz-adv-x="731" d="M731.136 64.256q0-61.44-35.84-106.496t-86.016-45.056h-487.424q-50.176 0-86.016 45.056t-35.84 106.496q0 49.152 5.12 92.16t17.408 87.040 33.792 74.752 53.248 51.2 77.824 19.456q74.752-73.728 178.176-73.728t179.2 73.728q43.008 0 76.8-19.456t53.248-51.2 33.792-74.752 18.432-87.040 4.096-92.16zM584.704 571.136q0-90.112-63.488-154.624t-155.648-64.512-154.624 64.512-64.512 154.624 64.512 155.648 154.624 64.512 155.648-64.512 63.488-155.648z" />
<glyph unicode="&#xe834;" glyph-name="users" horiz-adv-x="1097" d="M338.944 352q-92.16-3.072-151.552-72.704h-76.8q-46.080 0-78.848 22.528t-31.744 67.584q0 201.728 70.656 201.728 4.096 0 25.6-11.264t55.296-24.576 67.584-12.288q38.912 0 76.8 13.312-3.072-21.504-3.072-37.888 0-79.872 46.080-146.432zM951.296-12.544q0-67.584-41.984-107.52t-110.592-39.936h-499.712q-69.632 0-110.592 39.936t-41.984 107.52q0 30.72 2.048 59.392t8.192 62.464 14.336 62.464 24.576 55.296 35.84 46.080 49.152 30.72 63.488 11.264q6.144 0 24.576-12.288t41.984-26.624 60.416-27.648 77.824-12.288 76.8 12.288 61.44 27.648 41.984 26.624 24.576 12.288q34.816 0 63.488-11.264t48.128-30.72 35.84-46.080 24.576-55.296 15.36-62.464 8.192-62.464 2.048-59.392zM365.568 717.568q0-60.416-43.008-103.424t-103.424-43.008-103.424 43.008-43.008 103.424 43.008 103.424 103.424 43.008 103.424-43.008 43.008-103.424zM768 498.432q0-91.136-64.512-155.648t-154.624-63.488-155.648 63.488-64.512 155.648 64.512 154.624 155.648 64.512 154.624-64.512 64.512-154.624zM1096.704 369.408q0-44.032-31.744-67.584t-78.848-22.528h-76.8q-58.368 69.632-150.528 72.704 46.080 66.56 46.080 146.432 0 16.384-3.072 37.888 37.888-13.312 75.776-13.312 33.792 0 68.608 12.288t55.296 24.576 24.576 11.264q70.656 0 70.656-201.728zM1024 717.568q0-60.416-43.008-103.424t-103.424-43.008-103.424 43.008-43.008 103.424 43.008 103.424 103.424 43.008 103.424-43.008 43.008-103.424z" />
<glyph unicode="&#xe835;" glyph-name="video" horiz-adv-x="1097" d="M219.136-50.432v73.728q0 14.336-10.24 25.6t-25.6 10.24h-73.728q-14.336 0-25.6-10.24t-11.264-25.6v-73.728q0-14.336 11.264-25.6t25.6-11.264h73.728q14.336 0 25.6 11.264t10.24 25.6zM219.136 168.704v73.728q0 14.336-10.24 25.6t-25.6 11.264h-73.728q-14.336 0-25.6-11.264t-11.264-25.6v-73.728q0-14.336 11.264-25.6t25.6-10.24h73.728q14.336 0 25.6 10.24t10.24 25.6zM219.136 388.864v72.704q0 15.36-10.24 25.6t-25.6 11.264h-73.728q-14.336 0-25.6-11.264t-11.264-25.6v-72.704q0-15.36 11.264-25.6t25.6-11.264h73.728q14.336 0 25.6 11.264t10.24 25.6zM804.864-50.432v292.864q0 14.336-11.264 25.6t-25.6 11.264h-439.296q-14.336 0-25.6-11.264t-10.24-25.6v-292.864q0-14.336 10.24-25.6t25.6-11.264h439.296q15.36 0 25.6 11.264t11.264 25.6zM219.136 608v72.704q0 15.36-10.24 26.624t-25.6 10.24h-73.728q-14.336 0-25.6-10.24t-11.264-26.624v-72.704q0-14.336 11.264-25.6t25.6-11.264h73.728q14.336 0 25.6 11.264t10.24 25.6zM1024-50.432v73.728q0 14.336-11.264 25.6t-25.6 10.24h-72.704q-15.36 0-25.6-10.24t-11.264-25.6v-73.728q0-14.336 11.264-25.6t25.6-11.264h72.704q15.36 0 25.6 11.264t11.264 25.6zM804.864 388.864v291.84q0 15.36-11.264 26.624t-25.6 10.24h-439.296q-14.336 0-25.6-10.24t-10.24-26.624v-291.84q0-15.36 10.24-25.6t25.6-11.264h439.296q15.36 0 25.6 11.264t11.264 25.6zM1024 168.704v73.728q0 14.336-11.264 25.6t-25.6 11.264h-72.704q-15.36 0-25.6-11.264t-11.264-25.6v-73.728q0-14.336 11.264-25.6t25.6-10.24h72.704q15.36 0 25.6 10.24t11.264 25.6zM1024 388.864v72.704q0 15.36-11.264 25.6t-25.6 11.264h-72.704q-15.36 0-25.6-11.264t-11.264-25.6v-72.704q0-15.36 11.264-25.6t25.6-11.264h72.704q15.36 0 25.6 11.264t11.264 25.6zM1024 608v72.704q0 15.36-11.264 26.624t-25.6 10.24h-72.704q-15.36 0-25.6-10.24t-11.264-26.624v-72.704q0-14.336 11.264-25.6t25.6-11.264h72.704q15.36 0 25.6 11.264t11.264 25.6zM1096.704 699.136v-768q0-37.888-26.624-64.512t-64.512-26.624h-914.432q-36.864 0-64.512 26.624t-26.624 64.512v768q0 37.888 26.624 64.512t64.512 27.648h914.432q37.888 0 64.512-27.648t26.624-64.512z" />
<glyph unicode="&#xe836;" glyph-name="videocam" d="M1024 663.296v-622.592q0-23.552-22.528-32.768-7.168-3.072-14.336-3.072-15.36 0-25.6 10.24l-230.4 230.4v-94.208q0-68.608-48.128-116.736t-115.712-48.128h-402.432q-68.608 0-116.736 48.128t-48.128 116.736v401.408q0 68.608 48.128 116.736t116.736 48.128h402.432q67.584 0 115.712-48.128t48.128-116.736v-94.208l230.4 230.4q10.24 10.24 25.6 10.24 7.168 0 14.336-2.048 22.528-10.24 22.528-33.792z" />
<glyph unicode="&#xe837;" glyph-name="picture" horiz-adv-x="1097" d="M365.568 535.296q0-46.080-31.744-77.824t-77.824-32.768-77.824 32.768-31.744 77.824 31.744 77.824 77.824 31.744 77.824-31.744 31.744-77.824zM951.296 315.136v-256h-804.864v109.568l182.272 183.296 92.16-91.136 291.84 291.84zM1005.568 717.568h-914.432q-7.168 0-12.288-5.12t-6.144-13.312v-694.272q0-7.168 6.144-13.312t12.288-5.12h914.432q7.168 0 13.312 5.12t5.12 13.312v694.272q0 8.192-5.12 13.312t-13.312 5.12zM1096.704 699.136v-694.272q0-37.888-26.624-64.512t-64.512-27.648h-914.432q-36.864 0-64.512 27.648t-26.624 64.512v694.272q0 37.888 26.624 64.512t64.512 27.648h914.432q37.888 0 64.512-27.648t26.624-64.512z" />
<glyph unicode="&#xe838;" glyph-name="camera" horiz-adv-x="1097" d="M548.864 480q67.584 0 115.712-48.128t48.128-116.736-48.128-115.712-115.712-48.128-116.736 48.128-48.128 115.712 48.128 116.736 116.736 48.128zM951.296 717.568q60.416 0 103.424-43.008t41.984-103.424v-512q0-60.416-41.984-103.424t-103.424-43.008h-804.864q-60.416 0-103.424 43.008t-43.008 103.424v512q0 60.416 43.008 103.424t103.424 43.008h128l28.672 77.824q11.264 27.648 39.936 48.128t59.392 20.48h292.864q29.696 0 58.368-20.48t39.936-48.128l29.696-77.824h128zM548.864 59.136q105.472 0 180.224 75.776t75.776 180.224-75.776 181.248-180.224 74.752-181.248-74.752-74.752-181.248 74.752-180.224 181.248-75.776z" />
<glyph unicode="&#xe839;" glyph-name="camera-alt" d="M530.432 388.864q0 8.192-5.12 13.312t-13.312 5.12q-37.888 0-64.512-27.648t-26.624-64.512q0-7.168 5.12-12.288t13.312-6.144 12.288 6.144 5.12 12.288q0 23.552 16.384 38.912t38.912 16.384q8.192 0 13.312 5.12t5.12 13.312zM658.432 314.112q0-60.416-43.008-103.424t-103.424-43.008-103.424 43.008-43.008 103.424 43.008 103.424 103.424 43.008 103.424-43.008 43.008-103.424zM72.704-13.568h878.592v72.704h-878.592v-72.704zM731.136 314.112q0 91.136-63.488 155.648t-155.648 64.512-154.624-64.512-64.512-155.648 64.512-154.624 154.624-64.512 155.648 64.512 63.488 154.624zM146.432 680.704h219.136v73.728h-219.136v-73.728zM72.704 571.136h878.592v146.432h-473.088l-36.864-72.704h-368.64v-73.728zM1024 717.568v-731.136q0-30.72-21.504-52.224t-51.2-21.504h-878.592q-29.696 0-51.2 21.504t-21.504 52.224v731.136q0 30.72 21.504 52.224t51.2 21.504h878.592q29.696 0 51.2-21.504t21.504-52.224z" />
<glyph unicode="&#xe83a;" glyph-name="th-large" horiz-adv-x="950" d="M439.296 279.296v-220.16q0-29.696-22.528-51.2t-51.2-21.504h-292.864q-29.696 0-51.2 21.504t-21.504 51.2v220.16q0 29.696 21.504 51.2t51.2 21.504h292.864q29.696 0 51.2-21.504t22.528-51.2zM439.296 717.568v-219.136q0-29.696-22.528-51.2t-51.2-22.528h-292.864q-29.696 0-51.2 22.528t-21.504 51.2v219.136q0 29.696 21.504 51.2t51.2 22.528h292.864q29.696 0 51.2-22.528t22.528-51.2zM951.296 279.296v-220.16q0-29.696-22.528-51.2t-51.2-21.504h-292.864q-29.696 0-51.2 21.504t-21.504 51.2v220.16q0 29.696 21.504 51.2t51.2 21.504h292.864q29.696 0 51.2-21.504t22.528-51.2zM951.296 717.568v-219.136q0-29.696-22.528-51.2t-51.2-22.528h-292.864q-29.696 0-51.2 22.528t-21.504 51.2v219.136q0 29.696 21.504 51.2t51.2 22.528h292.864q29.696 0 51.2-22.528t22.528-51.2z" />
<glyph unicode="&#xe83b;" glyph-name="th" d="M292.864 151.296v-110.592q0-22.528-16.384-37.888t-38.912-16.384h-182.272q-23.552 0-38.912 16.384t-16.384 37.888v110.592q0 22.528 16.384 38.912t38.912 15.36h182.272q23.552 0 38.912-15.36t16.384-38.912zM292.864 443.136v-109.568q0-22.528-16.384-38.912t-38.912-15.36h-182.272q-23.552 0-38.912 15.36t-16.384 38.912v109.568q0 23.552 16.384 38.912t38.912 16.384h182.272q23.552 0 38.912-16.384t16.384-38.912zM658.432 151.296v-110.592q0-22.528-16.384-37.888t-38.912-16.384h-182.272q-23.552 0-38.912 16.384t-16.384 37.888v110.592q0 22.528 16.384 38.912t38.912 15.36h182.272q23.552 0 38.912-15.36t16.384-38.912zM292.864 736v-109.568q0-22.528-16.384-38.912t-38.912-16.384h-182.272q-23.552 0-38.912 16.384t-16.384 38.912v109.568q0 22.528 16.384 38.912t38.912 16.384h182.272q23.552 0 38.912-16.384t16.384-38.912zM658.432 443.136v-109.568q0-22.528-16.384-38.912t-38.912-15.36h-182.272q-23.552 0-38.912 15.36t-16.384 38.912v109.568q0 23.552 16.384 38.912t38.912 16.384h182.272q23.552 0 38.912-16.384t16.384-38.912zM1024 151.296v-110.592q0-22.528-16.384-37.888t-38.912-16.384h-182.272q-22.528 0-38.912 16.384t-16.384 37.888v110.592q0 22.528 16.384 38.912t38.912 15.36h182.272q23.552 0 38.912-15.36t16.384-38.912zM658.432 736v-109.568q0-22.528-16.384-38.912t-38.912-16.384h-182.272q-23.552 0-38.912 16.384t-16.384 38.912v109.568q0 22.528 16.384 38.912t38.912 16.384h182.272q23.552 0 38.912-16.384t16.384-38.912zM1024 443.136v-109.568q0-22.528-16.384-38.912t-38.912-15.36h-182.272q-22.528 0-38.912 15.36t-16.384 38.912v109.568q0 23.552 16.384 38.912t38.912 16.384h182.272q23.552 0 38.912-16.384t16.384-38.912zM1024 736v-109.568q0-22.528-16.384-38.912t-38.912-16.384h-182.272q-22.528 0-38.912 16.384t-16.384 38.912v109.568q0 22.528 16.384 38.912t38.912 16.384h182.272q23.552 0 38.912-16.384t16.384-38.912z" />
<glyph unicode="&#xe83c;" glyph-name="th-list" d="M292.864 151.296v-110.592q0-22.528-16.384-37.888t-38.912-16.384h-182.272q-23.552 0-38.912 16.384t-16.384 37.888v110.592q0 22.528 16.384 38.912t38.912 15.36h182.272q23.552 0 38.912-15.36t16.384-38.912zM292.864 443.136v-109.568q0-22.528-16.384-38.912t-38.912-15.36h-182.272q-23.552 0-38.912 15.36t-16.384 38.912v109.568q0 23.552 16.384 38.912t38.912 16.384h182.272q23.552 0 38.912-16.384t16.384-38.912zM1024 151.296v-110.592q0-22.528-16.384-37.888t-38.912-16.384h-547.84q-23.552 0-38.912 16.384t-16.384 37.888v110.592q0 22.528 16.384 38.912t38.912 15.36h547.84q23.552 0 38.912-15.36t16.384-38.912zM292.864 736v-109.568q0-22.528-16.384-38.912t-38.912-16.384h-182.272q-23.552 0-38.912 16.384t-16.384 38.912v109.568q0 22.528 16.384 38.912t38.912 16.384h182.272q23.552 0 38.912-16.384t16.384-38.912zM1024 443.136v-109.568q0-22.528-16.384-38.912t-38.912-15.36h-547.84q-23.552 0-38.912 15.36t-16.384 38.912v109.568q0 23.552 16.384 38.912t38.912 16.384h547.84q23.552 0 38.912-16.384t16.384-38.912zM1024 736v-109.568q0-22.528-16.384-38.912t-38.912-16.384h-547.84q-23.552 0-38.912 16.384t-16.384 38.912v109.568q0 22.528 16.384 38.912t38.912 16.384h547.84q23.552 0 38.912-16.384t16.384-38.912z" />
<glyph unicode="&#xe83d;" glyph-name="ok" d="M955.392 540.416q0-22.528-16.384-38.912l-491.52-491.52q-16.384-15.36-38.912-15.36t-38.912 15.36l-284.672 284.672q-15.36 16.384-15.36 38.912t15.36 38.912l77.824 77.824q16.384 16.384 38.912 16.384t38.912-16.384l167.936-168.96 374.784 375.808q16.384 16.384 38.912 16.384t38.912-16.384l77.824-77.824q16.384-15.36 16.384-38.912z" />
<glyph unicode="&#xe83e;" glyph-name="ok-circled" horiz-adv-x="878" d="M734.208 444.16q0 16.384-10.24 26.624l-52.224 51.2q-11.264 11.264-25.6 11.264t-25.6-11.264l-233.472-232.448-129.024 129.024q-11.264 11.264-25.6 11.264t-25.6-11.264l-52.224-51.2q-10.24-10.24-10.24-26.624 0-15.36 10.24-25.6l206.848-206.848q10.24-10.24 25.6-10.24t26.624 10.24l310.272 310.272q10.24 10.24 10.24 25.6zM877.568 352q0-119.808-58.368-220.16t-159.744-159.744-220.16-59.392-221.184 59.392-158.72 159.744-59.392 220.16 59.392 220.16 158.72 159.744 221.184 59.392 220.16-59.392 159.744-159.744 58.368-220.16z" />
<glyph unicode="&#xe83f;" glyph-name="ok-circled2" horiz-adv-x="878" d="M669.696 399.104l-241.664-240.64q-11.264-11.264-25.6-11.264t-25.6 11.264l-167.936 167.936q-11.264 11.264-11.264 25.6t11.264 25.6l58.368 58.368q10.24 11.264 25.6 11.264t25.6-11.264l83.968-83.968 156.672 157.696q11.264 10.24 25.6 10.24t26.624-10.24l58.368-58.368q10.24-11.264 10.24-26.624t-10.24-25.6zM749.568 352q0 84.992-41.984 155.648t-112.64 113.664-155.648 41.984-156.672-41.984-112.64-113.664-41.984-155.648 41.984-155.648 112.64-113.664 156.672-41.984 155.648 41.984 112.64 113.664 41.984 155.648zM877.568 352q0-119.808-58.368-220.16t-159.744-159.744-220.16-59.392-221.184 59.392-158.72 159.744-59.392 220.16 59.392 220.16 158.72 159.744 221.184 59.392 220.16-59.392 159.744-159.744 58.368-220.16z" />
<glyph unicode="&#xe840;" glyph-name="cancel" horiz-adv-x="804" d="M741.376 108.288q0-22.528-15.36-38.912l-77.824-77.824q-16.384-15.36-38.912-15.36t-38.912 15.36l-167.936 168.96-167.936-168.96q-16.384-15.36-38.912-15.36t-38.912 15.36l-77.824 77.824q-16.384 16.384-16.384 38.912t16.384 38.912l167.936 167.936-167.936 167.936q-16.384 16.384-16.384 38.912t16.384 38.912l77.824 77.824q16.384 16.384 38.912 16.384t38.912-16.384l167.936-167.936 167.936 167.936q16.384 16.384 38.912 16.384t38.912-16.384l77.824-77.824q15.36-15.36 15.36-38.912t-15.36-38.912l-167.936-167.936 167.936-167.936q15.36-15.36 15.36-38.912z" />
<glyph unicode="&#xe841;" glyph-name="cancel-circled" horiz-adv-x="878" d="M656.384 222.976q0 14.336-10.24 25.6l-103.424 103.424 103.424 103.424q10.24 11.264 10.24 25.6 0 15.36-10.24 26.624l-52.224 51.2q-10.24 11.264-25.6 11.264t-25.6-11.264l-103.424-103.424-103.424 103.424q-11.264 11.264-25.6 11.264-16.384 0-26.624-11.264l-51.2-51.2q-11.264-11.264-11.264-26.624 0-14.336 11.264-25.6l103.424-103.424-103.424-103.424q-11.264-11.264-11.264-25.6 0-15.36 11.264-26.624l51.2-51.2q10.24-11.264 26.624-11.264 14.336 0 25.6 11.264l103.424 103.424 103.424-103.424q10.24-11.264 25.6-11.264t25.6 11.264l52.224 51.2q10.24 11.264 10.24 26.624zM877.568 352q0-119.808-58.368-220.16t-159.744-159.744-220.16-59.392-221.184 59.392-158.72 159.744-59.392 220.16 59.392 220.16 158.72 159.744 221.184 59.392 220.16-59.392 159.744-159.744 58.368-220.16z" />
<glyph unicode="&#xe842;" glyph-name="cancel-circled2" horiz-adv-x="878" d="M626.688 247.552l-82.944-83.968q-6.144-5.12-13.312-5.12t-13.312 5.12l-77.824 78.848-78.848-78.848q-5.12-5.12-13.312-5.12t-12.288 5.12l-83.968 83.968q-6.144 6.144-6.144 13.312t6.144 13.312l77.824 77.824-77.824 78.848q-6.144 5.12-6.144 12.288t6.144 13.312l83.968 83.968q5.12 5.12 12.288 5.12t13.312-5.12l78.848-78.848 77.824 78.848q6.144 5.12 13.312 5.12t13.312-5.12l82.944-83.968q6.144-5.12 6.144-13.312t-6.144-12.288l-77.824-78.848 77.824-77.824q6.144-6.144 6.144-13.312t-6.144-13.312zM749.568 352q0 84.992-41.984 155.648t-112.64 113.664-155.648 41.984-156.672-41.984-112.64-113.664-41.984-155.648 41.984-155.648 112.64-113.664 156.672-41.984 155.648 41.984 112.64 113.664 41.984 155.648zM877.568 352q0-119.808-58.368-220.16t-159.744-159.744-220.16-59.392-221.184 59.392-158.72 159.744-59.392 220.16 59.392 220.16 158.72 159.744 221.184 59.392 220.16-59.392 159.744-159.744 58.368-220.16z" />
<glyph unicode="&#xe843;" glyph-name="plus" horiz-adv-x="804" d="M804.864 443.136v-109.568q0-22.528-16.384-38.912t-38.912-15.36h-237.568v-238.592q0-22.528-16.384-37.888t-38.912-16.384h-109.568q-22.528 0-38.912 16.384t-15.36 37.888v238.592h-237.568q-23.552 0-38.912 15.36t-16.384 38.912v109.568q0 23.552 16.384 38.912t38.912 16.384h237.568v237.568q0 22.528 15.36 38.912t38.912 16.384h109.568q23.552 0 38.912-16.384t16.384-38.912v-237.568h237.568q23.552 0 38.912-16.384t16.384-38.912z" />
<glyph unicode="&#xe844;" glyph-name="minus-circled" horiz-adv-x="878" d="M695.296 315.136v73.728q0 14.336-11.264 25.6t-25.6 10.24h-439.296q-14.336 0-25.6-10.24t-10.24-25.6v-73.728q0-14.336 10.24-25.6t25.6-10.24h439.296q14.336 0 25.6 10.24t11.264 25.6zM877.568 352q0-119.808-58.368-220.16t-159.744-159.744-220.16-59.392-221.184 59.392-158.72 159.744-59.392 220.16 59.392 220.16 158.72 159.744 221.184 59.392 220.16-59.392 159.744-159.744 58.368-220.16z" />
<glyph unicode="&#xe845;" glyph-name="help-circled" horiz-adv-x="878" d="M512 77.568v109.568q0 8.192-5.12 13.312t-13.312 5.12h-109.568q-8.192 0-13.312-5.12t-5.12-13.312v-109.568q0-8.192 5.12-13.312t13.312-5.12h109.568q8.192 0 13.312 5.12t5.12 13.312zM658.432 461.568q0 50.176-31.744 93.184t-78.848 66.56-97.28 23.552q-139.264 0-211.968-121.856-9.216-13.312 4.096-24.576l75.776-56.32q4.096-4.096 10.24-4.096 9.216 0 14.336 7.168 30.72 38.912 49.152 52.224 19.456 14.336 49.152 14.336 27.648 0 49.152-15.36t21.504-33.792q0-21.504-11.264-34.816t-38.912-25.6q-35.84-15.36-66.56-49.152t-29.696-71.68v-20.48q0-8.192 5.12-13.312t13.312-5.12h109.568q8.192 0 13.312 5.12t5.12 13.312q0 10.24 12.288 27.648t30.72 28.672q18.432 10.24 28.672 16.384t25.6 19.456 25.6 27.648 16.384 34.816 7.168 46.080zM877.568 352q0-119.808-58.368-220.16t-159.744-159.744-220.16-59.392-221.184 59.392-158.72 159.744-59.392 220.16 59.392 220.16 158.72 159.744 221.184 59.392 220.16-59.392 159.744-159.744 58.368-220.16z" />
<glyph unicode="&#xe846;" glyph-name="info-circled" horiz-adv-x="878" d="M584.704 77.568v91.136q0 8.192-5.12 13.312t-12.288 5.12h-55.296v292.864q0 8.192-5.12 13.312t-13.312 5.12h-182.272q-8.192 0-13.312-5.12t-5.12-13.312v-91.136q0-8.192 5.12-13.312t13.312-5.12h54.272v-183.296h-54.272q-8.192 0-13.312-5.12t-5.12-13.312v-91.136q0-8.192 5.12-13.312t13.312-5.12h256q7.168 0 12.288 5.12t5.12 13.312zM512 589.568v91.136q0 8.192-5.12 13.312t-13.312 5.12h-109.568q-8.192 0-13.312-5.12t-5.12-13.312v-91.136q0-8.192 5.12-13.312t13.312-5.12h109.568q8.192 0 13.312 5.12t5.12 13.312zM877.568 352q0-119.808-58.368-220.16t-159.744-159.744-220.16-59.392-221.184 59.392-158.72 159.744-59.392 220.16 59.392 220.16 158.72 159.744 221.184 59.392 220.16-59.392 159.744-159.744 58.368-220.16z" />
<glyph unicode="&#xe847;" glyph-name="home" horiz-adv-x="950" d="M804.864 296.704v-273.408q0-15.36-11.264-25.6t-25.6-11.264h-219.136v219.136h-146.432v-219.136h-219.136q-15.36 0-25.6 11.264t-11.264 25.6v273.408q0 1.024 0 2.048t0 2.048l328.704 270.336 328.704-270.336q1.024-1.024 1.024-4.096zM931.84 336.64l-34.816-41.984q-5.12-5.12-12.288-6.144h-2.048q-7.168 0-12.288 3.072l-395.264 329.728-395.264-329.728q-7.168-4.096-13.312-3.072-7.168 1.024-12.288 6.144l-35.84 41.984q-4.096 6.144-3.072 13.312t6.144 12.288l410.624 342.016q18.432 15.36 43.008 15.36t44.032-15.36l139.264-115.712v110.592q0 8.192 5.12 13.312t13.312 5.12h109.568q8.192 0 13.312-5.12t5.12-13.312v-232.448l124.928-104.448q6.144-4.096 6.144-12.288t-4.096-13.312z" />
<glyph unicode="&#xe848;" glyph-name="link" horiz-adv-x="950" d="M832.512 168.704q0 23.552-16.384 38.912l-118.784 118.784q-16.384 16.384-38.912 16.384-24.576 0-40.96-18.432 1.024-1.024 10.24-10.24t12.288-12.288 9.216-11.264 7.168-14.336 2.048-15.36q0-23.552-16.384-38.912t-38.912-16.384q-8.192 0-15.36 2.048t-14.336 7.168-11.264 9.216-12.288 12.288-10.24 10.24q-19.456-17.408-19.456-40.96t16.384-38.912l117.76-118.784q15.36-15.36 38.912-15.36 22.528 0 38.912 15.36l83.968 82.944q16.384 16.384 16.384 37.888zM430.080 572.16q0 22.528-15.36 38.912l-117.76 117.76q-16.384 16.384-38.912 16.384t-38.912-15.36l-83.968-83.968q-16.384-15.36-16.384-37.888t16.384-38.912l118.784-118.784q15.36-15.36 38.912-15.36t40.96 17.408q-2.048 2.048-11.264 11.264t-12.288 12.288-8.192 10.24-7.168 14.336-2.048 16.384q0 22.528 15.36 38.912t38.912 15.36q9.216 0 16.384-2.048t14.336-7.168 11.264-8.192 12.288-12.288 10.24-11.264q18.432 17.408 18.432 41.984zM942.080 168.704q0-67.584-49.152-115.712l-83.968-82.944q-47.104-48.128-115.712-48.128-69.632 0-116.736 49.152l-117.76 117.76q-47.104 48.128-47.104 116.736 0 69.632 50.176 118.784l-50.176 50.176q-49.152-50.176-118.784-50.176-68.608 0-116.736 48.128l-118.784 118.784q-48.128 48.128-48.128 116.736t48.128 115.712l83.968 83.968q48.128 47.104 116.736 47.104t116.736-48.128l117.76-118.784q47.104-47.104 47.104-115.712 0-70.656-50.176-119.808l50.176-50.176q49.152 50.176 118.784 50.176 68.608 0 116.736-48.128l118.784-118.784q48.128-48.128 48.128-116.736z" />
<glyph unicode="&#xe849;" glyph-name="attach" horiz-adv-x="804" d="M802.816 72.448q0-66.56-46.080-111.616t-111.616-45.056q-76.8 0-134.144 56.32l-444.416 444.416q-64.512 65.536-64.512 154.624 0 91.136 63.488 153.6t153.6 63.488q90.112 0 155.648-64.512l346.112-346.112q5.12-5.12 5.12-12.288 0-9.216-17.408-26.624t-26.624-17.408q-7.168 0-12.288 5.12l-347.136 347.136q-45.056 44.032-103.424 44.032-60.416 0-102.4-43.008t-40.96-103.424q0-59.392 43.008-103.424l443.392-443.392q35.84-36.864 82.944-36.864 36.864 0 60.416 24.576t24.576 60.416q0 47.104-35.84 82.944l-332.8 331.776q-14.336 14.336-33.792 14.336-16.384 0-27.648-11.264t-11.264-27.648q0-18.432 14.336-33.792l234.496-233.472q6.144-6.144 6.144-13.312 0-9.216-18.432-26.624t-26.624-17.408q-6.144 0-12.288 5.12l-234.496 234.496q-35.84 34.816-35.84 84.992 0 47.104 32.768 79.872t78.848 32.768q50.176 0 86.016-35.84l331.776-332.8q57.344-55.296 57.344-134.144z" />
<glyph unicode="&#xe84a;" glyph-name="lock" horiz-adv-x="657" d="M183.296 424.704h291.84v110.592q0 60.416-43.008 103.424t-103.424 41.984-103.424-41.984-41.984-103.424v-110.592zM658.432 370.432v-329.728q0-22.528-16.384-37.888t-38.912-16.384h-547.84q-23.552 0-38.912 16.384t-16.384 37.888v329.728q0 22.528 16.384 38.912t38.912 15.36h17.408v110.592q0 104.448 75.776 180.224t180.224 75.776 181.248-75.776 74.752-180.224v-110.592h18.432q23.552 0 38.912-15.36t16.384-38.912z" />
<glyph unicode="&#xe84b;" glyph-name="lock-open" horiz-adv-x="950" d="M951.296 535.296v-146.432q0-15.36-11.264-25.6t-25.6-11.264h-36.864q-14.336 0-25.6 11.264t-11.264 25.6v146.432q0 60.416-41.984 103.424t-103.424 41.984-103.424-41.984-43.008-103.424v-110.592h54.272q23.552 0 38.912-15.36t16.384-38.912v-329.728q0-22.528-16.384-37.888t-38.912-16.384h-547.84q-23.552 0-38.912 16.384t-16.384 37.888v329.728q0 22.528 16.384 38.912t38.912 15.36h384v110.592q0 105.472 74.752 180.224t181.248 75.776 180.224-75.776 75.776-180.224z" />
<glyph unicode="&#xe84c;" glyph-name="tags" horiz-adv-x="1097" d="M256 608q0 30.72-21.504 52.224t-51.2 20.48-52.224-20.48-21.504-52.224 21.504-51.2 52.224-21.504 51.2 21.504 21.504 51.2zM865.28 279.296q0-30.72-20.48-52.224l-280.576-280.576q-22.528-21.504-52.224-21.504-30.72 0-51.2 21.504l-408.576 408.576q-21.504 21.504-36.864 58.368t-15.36 66.56v237.568q0 29.696 21.504 51.2t51.2 22.528h238.592q29.696 0 66.56-15.36t58.368-36.864l408.576-408.576q20.48-21.504 20.48-51.2zM1085.44 279.296q0-30.72-21.504-52.224l-280.576-280.576q-22.528-21.504-52.224-21.504-20.48 0-33.792 8.192t-29.696 25.6l268.288 268.288q21.504 21.504 21.504 52.224 0 29.696-21.504 51.2l-408.576 408.576q-21.504 21.504-58.368 36.864t-66.56 15.36h128q29.696 0 66.56-15.36t58.368-36.864l408.576-408.576q21.504-21.504 21.504-51.2z" />
<glyph unicode="&#xe84d;" glyph-name="bookmark" horiz-adv-x="731" d="M665.6 791.296q12.288 0 24.576-5.12 19.456-8.192 29.696-23.552t11.264-35.84v-736.256q0-19.456-11.264-35.84t-29.696-23.552q-10.24-4.096-24.576-4.096-27.648 0-48.128 18.432l-251.904 241.664-251.904-241.664q-20.48-19.456-47.104-19.456-13.312 0-25.6 5.12-18.432 7.168-29.696 23.552t-11.264 35.84v736.256q0 19.456 11.264 35.84t29.696 23.552q12.288 5.12 25.6 5.12h599.040z" />
<glyph unicode="&#xe84e;" glyph-name="flag" d="M183.296 717.568q0-40.96-36.864-62.464v-723.968q0-7.168-5.12-12.288t-13.312-6.144h-36.864q-7.168 0-12.288 6.144t-6.144 12.288v723.968q-35.84 21.504-35.84 62.464 0 30.72 21.504 52.224t51.2 21.504 52.224-21.504 21.504-52.224zM1024 680.704v-435.2q0-14.336-7.168-22.528t-22.528-15.36q-122.88-66.56-210.944-66.56-34.816 0-70.656 12.288t-61.44 27.648-66.56 27.648-80.896 12.288q-109.568 0-265.216-82.944-10.24-5.12-19.456-5.12-14.336 0-25.6 10.24t-10.24 25.6v424.96q0 17.408 17.408 30.72 12.288 8.192 45.056 24.576 135.168 68.608 240.64 68.608 61.44 0 114.688-16.384t124.928-50.176q21.504-11.264 50.176-11.264 30.72 0 66.56 12.288t63.488 26.624 50.176 26.624 30.72 12.288q15.36 0 25.6-10.24t11.264-26.624z" />
<glyph unicode="&#xe84f;" glyph-name="thumbs-up" horiz-adv-x="878" d="M146.432 96q0 15.36-11.264 25.6t-25.6 11.264-25.6-11.264-11.264-25.6 11.264-25.6 25.6-11.264 25.6 11.264 11.264 25.6zM804.864 424.704q0 29.696-22.528 51.2t-51.2 22.528h-200.704q0 32.768 27.648 91.136t26.624 91.136q0 56.32-17.408 82.944t-73.728 27.648q-14.336-15.36-21.504-49.152t-17.408-71.68-33.792-62.464q-13.312-13.312-44.032-52.224-2.048-3.072-13.312-16.384t-18.432-23.552-19.456-24.576-22.528-25.6-22.528-19.456-22.528-15.36-20.48-6.144h-18.432v-365.568h18.432q7.168 0 18.432-1.024t18.432-4.096 21.504-6.144 20.48-7.168 20.48-6.144 16.384-6.144q120.832-41.984 195.584-41.984h68.608q109.568 0 109.568 95.232 0 15.36-2.048 31.744 16.384 9.216 26.624 30.72t10.24 41.984-10.24 38.912q29.696 28.672 29.696 68.608 0 14.336-5.12 31.744t-14.336 26.624q18.432 1.024 30.72 26.624t12.288 46.080zM877.568 425.728q0-51.2-27.648-93.184 5.12-18.432 5.12-38.912 0-44.032-21.504-82.944 1.024-12.288 1.024-24.576 0-57.344-33.792-101.376 0-79.872-49.152-125.952t-129.024-46.080h-73.728q-55.296 0-108.544 13.312t-123.904 36.864q-66.56 23.552-78.848 23.552h-164.864q-29.696 0-51.2 21.504t-21.504 51.2v365.568q0 30.72 21.504 52.224t51.2 21.504h156.672q20.48 13.312 78.848 88.064 32.768 43.008 61.44 73.728 13.312 14.336 19.456 49.152t17.408 71.68 35.84 61.44q22.528 21.504 51.2 21.504 48.128 0 86.016-18.432t58.368-58.368 20.48-106.496q0-52.224-27.648-109.568h100.352q59.392 0 103.424-43.008t43.008-102.4z" />
<glyph unicode="&#xe850;" glyph-name="thumbs-down" horiz-adv-x="878" d="M146.432 608q0 15.36-11.264 25.6t-25.6 11.264-25.6-11.264-11.264-25.6 11.264-25.6 25.6-11.264 25.6 11.264 11.264 25.6zM804.864 279.296q0 19.456-12.288 46.080t-30.72 26.624q8.192 10.24 14.336 27.648t5.12 31.744q0 38.912-29.696 67.584 10.24 17.408 10.24 38.912t-10.24 41.984-26.624 30.72q2.048 16.384 2.048 31.744 0 48.128-27.648 71.68t-77.824 23.552h-72.704q-74.752 0-195.584-41.984-3.072-1.024-16.384-5.12t-20.48-7.168-20.48-7.168-21.504-6.144-18.432-4.096-18.432-1.024h-18.432v-365.568h18.432q9.216 0 20.48-5.12t22.528-15.36 22.528-20.48 22.528-25.6 19.456-24.576 18.432-22.528 13.312-17.408q30.72-38.912 44.032-52.224 23.552-24.576 33.792-62.464t17.408-71.68 21.504-49.152q55.296 0 73.728 27.648t17.408 82.944q0 33.792-26.624 91.136t-27.648 91.136h200.704q28.672 0 51.2 22.528t22.528 51.2zM877.568 278.272q0-58.368-43.008-102.4t-103.424-43.008h-100.352q27.648-56.32 27.648-109.568 0-67.584-20.48-106.496-19.456-39.936-58.368-58.368t-86.016-18.432q-28.672 0-51.2 21.504-19.456 18.432-30.72 46.080t-14.336 52.224-10.24 48.128-17.408 36.864q-27.648 28.672-61.44 72.704-58.368 74.752-78.848 88.064h-156.672q-29.696 0-51.2 21.504t-21.504 52.224v365.568q0 29.696 21.504 51.2t51.2 21.504h164.864q12.288 0 78.848 23.552 73.728 24.576 128 36.864t113.664 13.312h64.512q79.872 0 129.024-45.056t49.152-123.904v-3.072q33.792-44.032 33.792-101.376 0-12.288-1.024-24.576 21.504-38.912 21.504-81.92 0-21.504-5.12-39.936 27.648-41.984 27.648-93.184z" />
<glyph unicode="&#xe851;" glyph-name="download" horiz-adv-x="950" d="M731.136 96q0 15.36-10.24 25.6t-25.6 11.264-25.6-11.264-11.264-25.6 11.264-25.6 25.6-11.264 25.6 11.264 10.24 25.6zM877.568 96q0 15.36-10.24 25.6t-26.624 11.264-25.6-11.264-10.24-25.6 10.24-25.6 25.6-11.264 26.624 11.264 10.24 25.6zM951.296 224v-183.296q0-22.528-16.384-37.888t-38.912-16.384h-840.704q-23.552 0-38.912 16.384t-16.384 37.888v183.296q0 22.528 16.384 38.912t38.912 16.384h265.216l76.8-77.824q33.792-32.768 77.824-32.768t77.824 32.768l77.824 77.824h265.216q22.528 0 38.912-16.384t16.384-38.912zM764.928 549.632q10.24-23.552-8.192-39.936l-256-256q-10.24-11.264-25.6-11.264t-25.6 11.264l-256 256q-17.408 16.384-8.192 39.936 10.24 21.504 33.792 21.504h146.432v256q0 15.36 11.264 25.6t25.6 11.264h146.432q14.336 0 25.6-11.264t10.24-25.6v-256h146.432q24.576 0 33.792-21.504z" />
<glyph unicode="&#xe852;" glyph-name="upload" horiz-adv-x="950" d="M731.136 23.296q0 14.336-10.24 25.6t-25.6 10.24-25.6-10.24-11.264-25.6 11.264-25.6 25.6-11.264 25.6 11.264 10.24 25.6zM877.568 23.296q0 14.336-10.24 25.6t-26.624 10.24-25.6-10.24-10.24-25.6 10.24-25.6 25.6-11.264 26.624 11.264 10.24 25.6zM951.296 151.296v-183.296q0-22.528-16.384-38.912t-38.912-16.384h-840.704q-23.552 0-38.912 16.384t-16.384 38.912v183.296q0 22.528 16.384 38.912t38.912 15.36h243.712q12.288-31.744 39.936-52.224t63.488-20.48h146.432q34.816 0 62.464 20.48t40.96 52.224h243.712q22.528 0 38.912-15.36t16.384-38.912zM764.928 520.96q-9.216-22.528-33.792-22.528h-146.432v-256q0-15.36-10.24-25.6t-25.6-11.264h-146.432q-15.36 0-25.6 11.264t-11.264 25.6v256h-146.432q-23.552 0-33.792 22.528-9.216 22.528 8.192 39.936l256 256q10.24 10.24 25.6 10.24t25.6-10.24l256-256q18.432-17.408 8.192-39.936z" />
<glyph unicode="&#xe853;" glyph-name="export" horiz-adv-x="950" d="M804.864 298.752v-147.456q0-68.608-48.128-116.736t-116.736-48.128h-475.136q-68.608 0-116.736 48.128t-48.128 116.736v475.136q0 67.584 48.128 115.712t116.736 49.152h145.408q7.168 0 13.312-6.144t5.12-12.288q0-15.36-15.36-18.432-44.032-15.36-75.776-34.816-5.12-2.048-9.216-2.048h-63.488q-37.888 0-64.512-26.624t-27.648-64.512v-475.136q0-37.888 27.648-64.512t64.512-27.648h475.136q37.888 0 64.512 27.648t26.624 64.512v121.856q0 11.264 10.24 16.384 16.384 7.168 31.744 21.504 8.192 9.216 19.456 4.096 12.288-5.12 12.288-16.384zM940.032 582.4l-219.136-219.136q-10.24-11.264-25.6-11.264-7.168 0-14.336 3.072-22.528 9.216-22.528 33.792v109.568h-91.136q-185.344 0-250.88-74.752-67.584-78.848-41.984-270.336 2.048-13.312-11.264-19.456-5.12-1.024-7.168-1.024-9.216 0-14.336 7.168-6.144 8.192-12.288 17.408t-22.528 39.936-28.672 56.32-21.504 65.536-10.24 69.632q0 27.648 2.048 52.224t8.192 51.2 15.36 50.176 27.648 46.080 38.912 43.008 53.248 34.816 71.68 27.648 91.136 17.408 112.64 6.144h91.136v109.568q0 24.576 22.528 33.792 7.168 3.072 14.336 3.072 14.336 0 25.6-11.264l219.136-219.136q11.264-10.24 11.264-25.6t-11.264-25.6z" />
<glyph unicode="&#xe854;" glyph-name="pencil" horiz-adv-x="878" d="M207.872-13.568l51.2 52.224-134.144 134.144-52.224-52.224v-61.44h73.728v-72.704h61.44zM505.856 516.864q0 12.288-12.288 12.288-5.12 0-9.216-4.096l-310.272-309.248q-4.096-4.096-4.096-10.24 0-12.288 13.312-12.288 5.12 0 9.216 4.096l310.272 309.248q3.072 4.096 3.072 10.24zM475.136 626.432l237.568-237.568-475.136-476.16h-237.568v238.592zM865.28 571.136q0-29.696-20.48-51.2l-95.232-95.232-237.568 238.592 95.232 94.208q20.48 21.504 51.2 21.504 29.696 0 52.224-21.504l134.144-134.144q20.48-22.528 20.48-52.224z" />
<glyph unicode="&#xe855;" glyph-name="edit" d="M507.904 187.136l65.536 66.56-87.040 87.040-65.536-66.56v-31.744h54.272v-55.296h32.768zM758.784 598.784q-9.216 9.216-18.432 0l-200.704-200.704q-9.216-9.216 0-18.432t18.432 0l200.704 200.704q9.216 9.216 0 18.432zM804.864 259.84v-108.544q0-68.608-48.128-116.736t-116.736-48.128h-475.136q-68.608 0-116.736 48.128t-48.128 116.736v475.136q0 67.584 48.128 115.712t116.736 49.152h475.136q35.84 0 66.56-14.336 9.216-4.096 10.24-13.312 2.048-10.24-5.12-16.384l-27.648-28.672q-8.192-8.192-18.432-4.096-13.312 3.072-25.6 3.072h-475.136q-37.888 0-64.512-26.624t-27.648-64.512v-475.136q0-37.888 27.648-64.512t64.512-27.648h475.136q37.888 0 64.512 27.648t26.624 64.512v71.68q0 7.168 5.12 12.288l36.864 36.864q8.192 8.192 20.48 4.096t11.264-16.384zM749.568 680.704l164.864-163.84-384-384h-164.864v163.84zM1003.52 605.952l-52.224-53.248-164.864 164.864 52.224 53.248q16.384 15.36 38.912 15.36t38.912-15.36l87.040-87.040q16.384-16.384 16.384-38.912t-16.384-38.912z" />
<glyph unicode="&#xe856;" glyph-name="print" horiz-adv-x="950" d="M219.136-13.568h512v146.432h-512v-146.432zM219.136 352h512v219.136h-91.136q-22.528 0-38.912 16.384t-16.384 38.912v91.136h-365.568v-365.568zM877.568 315.136q0 15.36-10.24 25.6t-26.624 11.264-25.6-11.264-10.24-25.6 10.24-25.6 25.6-10.24 26.624 10.24 10.24 25.6zM951.296 315.136v-237.568q0-7.168-6.144-12.288t-12.288-6.144h-128v-91.136q0-22.528-16.384-38.912t-38.912-16.384h-548.864q-22.528 0-37.888 16.384t-16.384 38.912v91.136h-128q-7.168 0-13.312 6.144t-5.12 12.288v237.568q0 45.056 32.768 77.824t76.8 31.744h36.864v311.296q0 22.528 16.384 38.912t37.888 16.384h384q23.552 0 51.2-12.288t43.008-26.624l87.040-87.040q15.36-16.384 27.648-44.032t11.264-50.176v-146.432h35.84q46.080 0 77.824-31.744t32.768-77.824z" />
<glyph unicode="&#xe857;" glyph-name="retweet" horiz-adv-x="1097" d="M731.136 4.864q0-7.168-5.12-13.312t-13.312-5.12h-547.84q-5.12 0-8.192 1.024t-5.12 4.096-3.072 4.096-2.048 7.168 0 6.144v343.040h-109.568q-15.36 0-25.6 11.264t-11.264 25.6q0 13.312 8.192 23.552l183.296 219.136q11.264 12.288 27.648 12.288t28.672-12.288l182.272-219.136q9.216-10.24 9.216-23.552 0-15.36-11.264-25.6t-25.6-11.264h-109.568v-219.136h328.704q9.216 0 14.336-6.144l91.136-110.592q4.096-5.12 4.096-11.264zM1096.704 242.432q0-13.312-8.192-23.552l-182.272-219.136q-12.288-13.312-28.672-13.312t-27.648 13.312l-183.296 219.136q-8.192 10.24-8.192 23.552 0 14.336 11.264 25.6t25.6 11.264h109.568v219.136h-329.728q-9.216 0-14.336 7.168l-91.136 109.568q-4.096 5.12-4.096 11.264 0 7.168 5.12 12.288t13.312 6.144h548.864q4.096 0 7.168-1.024t5.12-4.096 3.072-5.12 2.048-6.144 1.024-7.168v-342.016h109.568q14.336 0 25.6-11.264t10.24-25.6z" />
<glyph unicode="&#xe858;" glyph-name="comment" d="M1024 352q0-99.328-68.608-183.296t-186.368-133.12-257.024-49.152q-39.936 0-82.944 4.096-112.64-99.328-263.168-138.24-27.648-8.192-64.512-12.288-10.24-1.024-17.408 5.12t-10.24 16.384v1.024q-2.048 2.048 0 6.144t1.024 6.144 2.048 5.12l4.096 5.12t4.096 5.12 4.096 5.12q4.096 5.12 17.408 19.456t20.48 22.528 17.408 22.528 18.432 28.672 15.36 33.792 15.36 43.008q-90.112 51.2-141.312 125.952t-52.224 160.768q0 74.752 40.96 142.336t108.544 116.736 163.84 77.824 198.656 28.672q139.264 0 257.024-49.152t186.368-133.12 68.608-183.296z" />
<glyph unicode="&#xe859;" glyph-name="chat" d="M804.864 424.704q0-78.848-54.272-146.432t-146.432-106.496-201.728-38.912q-49.152 0-100.352 9.216-71.68-50.176-158.72-73.728-21.504-5.12-49.152-9.216h-2.048q-6.144 0-12.288 5.12t-6.144 12.288q-1.024 1.024-1.024 3.072t1.024 4.096 1.024 3.072l1.024 3.072t2.048 3.072 2.048 3.072 3.072 3.072 2.048 2.048q3.072 3.072 13.312 14.336t15.36 16.384 12.288 17.408 14.336 21.504 11.264 25.6q-70.656 40.96-110.592 100.352t-40.96 128q0 79.872 54.272 147.456t146.432 106.496 201.728 38.912 201.728-38.912 146.432-106.496 54.272-147.456zM1024 279.296q0-68.608-40.96-129.024t-110.592-100.352q5.12-14.336 11.264-25.6t14.336-21.504 13.312-16.384 14.336-17.408 13.312-14.336q0 0 2.048-2.048t3.072-3.072 2.048-3.072 2.048-3.072l1.024-3.072t1.024-3.072 1.024-4.096-1.024-3.072q-2.048-8.192-7.168-13.312t-12.288-4.096q-28.672 4.096-49.152 9.216-88.064 23.552-159.744 73.728-51.2-9.216-100.352-9.216-154.624 0-269.312 75.776 32.768-3.072 50.176-3.072 92.16 0 176.128 25.6t151.552 73.728q70.656 53.248 109.568 121.856t37.888 144.384q0 44.032-13.312 87.040 73.728-39.936 116.736-101.376t43.008-131.072z" />
<glyph unicode="&#xe85a;" glyph-name="bell" d="M521.216-104.704q0 8.192-9.216 8.192-33.792 0-58.368 24.576t-23.552 58.368q0 9.216-9.216 9.216t-9.216-9.216q0-41.984 29.696-71.68t70.656-28.672q9.216 0 9.216 9.216zM140.288 59.136h743.424q-152.576 172.032-152.576 476.16 0 28.672-13.312 59.392t-39.936 59.392-68.608 46.080-97.28 17.408-97.28-17.408-68.608-46.080-39.936-59.392-13.312-59.392q0-304.128-152.576-476.16zM987.136 59.136q0-29.696-21.504-51.2t-51.2-21.504h-256q0-60.416-43.008-103.424t-103.424-43.008-103.424 43.008-43.008 103.424h-256q-29.696 0-51.2 21.504t-21.504 51.2q28.672 24.576 52.224 50.176t48.128 68.608 43.008 91.136 27.648 117.76 11.264 148.48q0 86.016 67.584 160.768t175.104 91.136q-5.12 10.24-5.12 21.504 0 23.552 16.384 38.912t38.912 16.384 38.912-16.384 16.384-38.912q0-11.264-5.12-21.504 108.544-16.384 175.104-91.136t67.584-160.768q0-79.872 11.264-148.48t28.672-117.76 41.984-91.136 49.152-68.608 51.2-50.176z" />
<glyph unicode="&#xe85b;" glyph-name="attention" d="M584.704 78.592v108.544q0 8.192-5.12 13.312t-12.288 5.12h-110.592q-7.168 0-12.288-5.12t-5.12-13.312v-108.544q0-8.192 5.12-13.312t12.288-6.144h110.592q7.168 0 12.288 6.144t5.12 13.312zM583.68 291.584l10.24 263.168q0 6.144-5.12 10.24-7.168 6.144-14.336 6.144h-124.928q-6.144 0-14.336-6.144-5.12-4.096-5.12-12.288l9.216-261.12q0-5.12 6.144-9.216t13.312-3.072h105.472q8.192 0 14.336 3.072t5.12 9.216zM576.512 826.112l438.272-804.864q20.48-35.84-1.024-71.68-9.216-17.408-26.624-26.624t-35.84-10.24h-878.592q-18.432 0-35.84 10.24t-26.624 26.624q-21.504 35.84-1.024 71.68l439.296 804.864q9.216 17.408 26.624 27.648t36.864 10.24 36.864-10.24 27.648-27.648z" />
<glyph unicode="&#xe85c;" glyph-name="attention-circled" horiz-adv-x="878" d="M439.296 791.296q118.784 0 220.16-59.392t159.744-159.744 58.368-220.16-58.368-220.16-159.744-159.744-220.16-59.392-221.184 59.392-158.72 159.744-59.392 220.16 59.392 220.16 158.72 159.744 221.184 59.392zM512 78.592v108.544q0 8.192-5.12 13.312t-12.288 5.12h-109.568q-8.192 0-13.312-5.12t-6.144-13.312v-108.544q0-8.192 6.144-13.312t13.312-6.144h109.568q7.168 0 12.288 6.144t5.12 13.312zM510.976 275.2l10.24 354.304q0 7.168-6.144 10.24-5.12 5.12-13.312 5.12h-125.952q-8.192 0-13.312-5.12-6.144-3.072-6.144-10.24l10.24-354.304q0-6.144 5.12-10.24t14.336-4.096h105.472q8.192 0 13.312 4.096t6.144 10.24z" />
<glyph unicode="&#xe85d;" glyph-name="location" horiz-adv-x="585" d="M439.296 498.432q0 60.416-43.008 103.424t-103.424 43.008-103.424-43.008-43.008-103.424 43.008-103.424 103.424-43.008 103.424 43.008 43.008 103.424zM584.704 498.432q0-62.464-18.432-102.4l-207.872-442.368q-9.216-18.432-27.648-29.696t-37.888-11.264-38.912 11.264-26.624 29.696l-208.896 442.368q-18.432 39.936-18.432 102.4 0 120.832 86.016 206.848t206.848 86.016 206.848-86.016 84.992-206.848z" />
</font>
</defs>
</svg>
